<svg xmlns="http://www.w3.org/2000/svg" xmlns:xlink="http://www.w3.org/1999/xlink" viewBox="0 0 960 540"><defs><style>.cls-1{fill:none;}.cls-2{clip-path:url(#clip-path);}.cls-3{fill:#290040;}.cls-4{fill:#290e58;}.cls-5{fill:#3d2167;}.cls-6{fill:#6d5481;}.cls-7{fill:#523c77;}.cls-8{fill:#846a8e;}.cls-9{fill:url(#linear-gradient);}.cls-10{fill:url(#linear-gradient-2);}.cls-11{fill:url(#linear-gradient-3);}.cls-12{fill:url(#linear-gradient-4);}</style><clipPath id="clip-path"><rect class="cls-1" width="960" height="540"/></clipPath><linearGradient id="linear-gradient" x1="480" y1="662.03" x2="480" y2="307.33" gradientUnits="userSpaceOnUse"><stop offset="0" stop-color="#e3e3e3"/><stop offset="1" stop-color="#a0b0bd"/></linearGradient><linearGradient id="linear-gradient-2" x1="507.15" y1="233.3" x2="507.15" y2="242.9" gradientUnits="userSpaceOnUse"><stop offset="0" stop-color="#d7d7d7"/><stop offset="0.27" stop-color="#ced0d3"/><stop offset="0.71" stop-color="#b4bec7"/><stop offset="1" stop-color="#a0b0bd"/></linearGradient><linearGradient id="linear-gradient-3" x1="479.33" y1="269.29" x2="479.33" y2="278.88" xlink:href="#linear-gradient-2"/><linearGradient id="linear-gradient-4" x1="490.28" y1="194.51" x2="490.28" y2="204.11" xlink:href="#linear-gradient-2"/></defs><title>Olympics_BoxingGame</title><g id="Image"><g class="cls-2"><rect class="cls-3" x="-7.37" y="-45.17" width="974.75" height="688.68"/><rect class="cls-4" x="6.16" y="-30.21" width="47.95" height="47.95" rx="15.22" ry="15.22"/><rect class="cls-4" x="-2.3" y="17.73" width="64.87" height="76.15" rx="22.31" ry="22.31"/><rect class="cls-4" x="76.67" y="-30.21" width="47.95" height="47.95" rx="15.22" ry="15.22"/><rect class="cls-4" x="68.2" y="17.73" width="64.87" height="76.15" rx="22.31" ry="22.31"/><rect class="cls-4" x="147.17" y="-30.21" width="47.95" height="47.95" rx="15.22" ry="15.22"/><rect class="cls-4" x="138.71" y="17.73" width="64.87" height="76.15" rx="22.31" ry="22.31"/><rect class="cls-4" x="216.91" y="-30.21" width="47.95" height="47.95" rx="15.22" ry="15.22"/><rect class="cls-4" x="208.44" y="17.73" width="64.87" height="76.15" rx="22.31" ry="22.31"/><rect class="cls-4" x="287.41" y="-30.41" width="47.95" height="47.95" rx="15.22" ry="15.22"/><rect class="cls-4" x="278.95" y="17.54" width="64.87" height="76.15" rx="22.31" ry="22.31"/><rect class="cls-4" x="357.92" y="-30.41" width="47.95" height="47.95" rx="15.22" ry="15.22"/><rect class="cls-4" x="349.46" y="17.54" width="64.87" height="76.15" rx="22.31" ry="22.31"/><rect class="cls-4" x="428.43" y="-30.41" width="47.95" height="47.95" rx="15.22" ry="15.22"/><rect class="cls-4" x="419.97" y="17.54" width="64.87" height="76.15" rx="22.31" ry="22.31"/><rect class="cls-4" x="497.87" y="-30.41" width="47.95" height="47.95" rx="15.22" ry="15.22"/><rect class="cls-4" x="489.41" y="17.54" width="64.87" height="76.15" rx="22.31" ry="22.31"/><rect class="cls-4" x="568.38" y="-30.41" width="47.95" height="47.95" rx="15.22" ry="15.22"/><rect class="cls-4" x="559.92" y="17.54" width="64.87" height="76.15" rx="22.31" ry="22.31"/><rect class="cls-4" x="638.89" y="-30.41" width="47.95" height="47.95" rx="15.22" ry="15.22"/><rect class="cls-4" x="630.43" y="17.54" width="64.87" height="76.15" rx="22.31" ry="22.31"/><rect class="cls-4" x="709.4" y="-30.41" width="47.95" height="47.95" rx="15.22" ry="15.22"/><rect class="cls-4" x="700.94" y="17.54" width="64.87" height="76.15" rx="22.31" ry="22.31"/><rect class="cls-4" x="779.13" y="-30.41" width="47.95" height="47.95" rx="15.22" ry="15.22"/><rect class="cls-4" x="770.67" y="17.54" width="64.87" height="76.15" rx="22.31" ry="22.31"/><rect class="cls-4" x="849.64" y="-30.6" width="47.95" height="47.95" rx="15.22" ry="15.22"/><rect class="cls-4" x="841.18" y="17.35" width="64.87" height="76.15" rx="22.31" ry="22.31"/><rect class="cls-4" x="920.15" y="-30.6" width="47.95" height="47.95" rx="15.22" ry="15.22"/><rect class="cls-4" x="911.68" y="17.35" width="64.87" height="76.15" rx="22.31" ry="22.31"/><rect class="cls-5" x="-32.62" y="29.22" width="47.95" height="47.95" rx="15.22" ry="15.22"/><rect class="cls-5" x="-41.08" y="77.16" width="64.87" height="76.15" rx="22.31" ry="22.31"/><rect class="cls-5" x="37.89" y="29.22" width="47.95" height="47.95" rx="15.22" ry="15.22"/><rect class="cls-5" x="29.43" y="77.16" width="64.87" height="76.15" rx="22.31" ry="22.31"/><rect class="cls-5" x="108.4" y="29.22" width="47.95" height="47.95" rx="15.22" ry="15.22"/><rect class="cls-5" x="99.93" y="77.16" width="64.87" height="76.15" rx="22.31" ry="22.31"/><rect class="cls-5" x="178.9" y="29.22" width="47.95" height="47.95" rx="15.22" ry="15.22"/><rect class="cls-5" x="170.44" y="77.16" width="64.87" height="76.15" rx="22.31" ry="22.31"/><rect class="cls-5" x="248.63" y="29.22" width="47.95" height="47.95" rx="15.22" ry="15.22"/><rect class="cls-5" x="240.17" y="77.16" width="64.87" height="76.15" rx="22.31" ry="22.31"/><rect class="cls-5" x="319.14" y="29.02" width="47.95" height="47.95" rx="15.22" ry="15.22"/><rect class="cls-5" x="310.68" y="76.97" width="64.87" height="76.15" rx="22.31" ry="22.31"/><rect class="cls-5" x="389.65" y="29.02" width="47.95" height="47.95" rx="15.22" ry="15.22"/><rect class="cls-5" x="381.19" y="76.97" width="64.87" height="76.15" rx="22.31" ry="22.31"/><rect class="cls-5" x="460.16" y="29.02" width="47.95" height="47.95" rx="15.22" ry="15.22"/><rect class="cls-5" x="451.7" y="76.97" width="64.87" height="76.15" rx="22.31" ry="22.31"/><rect class="cls-5" x="529.6" y="29.02" width="47.95" height="47.95" rx="15.22" ry="15.22"/><rect class="cls-5" x="521.14" y="76.97" width="64.87" height="76.15" rx="22.31" ry="22.31"/><rect class="cls-5" x="600.11" y="29.02" width="47.95" height="47.95" rx="15.22" ry="15.22"/><rect class="cls-5" x="591.65" y="76.97" width="64.87" height="76.15" rx="22.31" ry="22.31"/><rect class="cls-5" x="670.62" y="29.02" width="47.95" height="47.95" rx="15.22" ry="15.22"/><rect class="cls-5" x="662.16" y="76.97" width="64.87" height="76.15" rx="22.31" ry="22.31"/><rect class="cls-5" x="741.13" y="29.02" width="47.95" height="47.95" rx="15.22" ry="15.22"/><rect class="cls-5" x="732.67" y="76.97" width="64.87" height="76.15" rx="22.31" ry="22.31"/><rect class="cls-5" x="810.86" y="29.02" width="47.95" height="47.95" rx="15.22" ry="15.22"/><rect class="cls-5" x="802.4" y="76.97" width="64.87" height="76.15" rx="22.31" ry="22.31"/><rect class="cls-5" x="881.37" y="28.83" width="47.95" height="47.95" rx="15.22" ry="15.22"/><rect class="cls-5" x="872.91" y="76.77" width="64.87" height="76.15" rx="22.31" ry="22.31"/><rect class="cls-5" x="951.88" y="28.83" width="47.95" height="47.95" rx="15.22" ry="15.22"/><rect class="cls-5" x="943.41" y="76.77" width="64.87" height="76.15" rx="22.31" ry="22.31"/><rect class="cls-6" x="-25.76" y="229.94" width="1088.14" height="137.93"/><rect class="cls-7" x="-1.97" y="77.07" width="47.95" height="47.95" rx="15.22" ry="15.22"/><rect class="cls-7" x="-10.43" y="125.02" width="64.87" height="76.15" rx="22.31" ry="22.31"/><rect class="cls-7" x="68.54" y="77.07" width="47.95" height="47.95" rx="15.22" ry="15.22"/><rect class="cls-7" x="60.08" y="125.02" width="64.87" height="76.15" rx="22.31" ry="22.31"/><rect class="cls-7" x="139.05" y="77.07" width="47.95" height="47.95" rx="15.22" ry="15.22"/><rect class="cls-7" x="130.59" y="125.02" width="64.87" height="76.15" rx="22.31" ry="22.31"/><rect class="cls-7" x="209.56" y="77.07" width="47.95" height="47.95" rx="15.22" ry="15.22"/><rect class="cls-7" x="201.1" y="125.02" width="64.87" height="76.15" rx="22.31" ry="22.31"/><rect class="cls-7" x="279.29" y="77.07" width="47.95" height="47.95" rx="15.22" ry="15.22"/><rect class="cls-7" x="270.83" y="125.02" width="64.87" height="76.15" rx="22.31" ry="22.31"/><rect class="cls-7" x="349.8" y="76.88" width="47.95" height="47.95" rx="15.22" ry="15.22"/><rect class="cls-7" x="341.33" y="124.82" width="64.87" height="76.15" rx="22.31" ry="22.31"/><rect class="cls-7" x="420.3" y="76.88" width="47.95" height="47.95" rx="15.22" ry="15.22"/><rect class="cls-7" x="411.84" y="124.82" width="64.87" height="76.15" rx="22.31" ry="22.31"/><rect class="cls-7" x="490.81" y="76.88" width="47.95" height="47.95" rx="15.22" ry="15.22"/><rect class="cls-7" x="482.35" y="124.82" width="64.87" height="76.15" rx="22.31" ry="22.31"/><rect class="cls-7" x="560.25" y="76.88" width="47.95" height="47.95" rx="15.22" ry="15.22"/><rect class="cls-7" x="551.79" y="124.82" width="64.87" height="76.15" rx="22.31" ry="22.31"/><rect class="cls-7" x="630.76" y="76.88" width="47.95" height="47.95" rx="15.22" ry="15.22"/><rect class="cls-7" x="622.3" y="124.82" width="64.87" height="76.15" rx="22.31" ry="22.31"/><rect class="cls-7" x="701.27" y="76.88" width="47.95" height="47.95" rx="15.22" ry="15.22"/><rect class="cls-7" x="692.81" y="124.82" width="64.87" height="76.15" rx="22.31" ry="22.31"/><rect class="cls-7" x="771.78" y="76.88" width="47.95" height="47.95" rx="15.22" ry="15.22"/><rect class="cls-7" x="763.32" y="124.82" width="64.87" height="76.15" rx="22.31" ry="22.31"/><rect class="cls-7" x="841.51" y="76.88" width="47.95" height="47.95" rx="15.22" ry="15.22"/><rect class="cls-7" x="833.05" y="124.82" width="64.87" height="76.15" rx="22.31" ry="22.31"/><rect class="cls-7" x="912.02" y="76.68" width="47.95" height="47.95" rx="15.22" ry="15.22"/><rect class="cls-7" x="903.56" y="124.63" width="64.87" height="76.15" rx="22.31" ry="22.31"/><rect class="cls-6" x="-32.62" y="138.37" width="47.95" height="47.95" rx="15.22" ry="15.22"/><rect class="cls-6" x="-41.08" y="186.32" width="64.87" height="76.15" rx="22.31" ry="22.31"/><rect class="cls-6" x="37.89" y="138.37" width="47.95" height="47.95" rx="15.22" ry="15.22"/><rect class="cls-6" x="29.43" y="186.32" width="64.87" height="76.15" rx="22.31" ry="22.31"/><rect class="cls-6" x="108.4" y="138.37" width="47.95" height="47.95" rx="15.22" ry="15.22"/><rect class="cls-6" x="99.93" y="186.32" width="64.87" height="76.15" rx="22.31" ry="22.31"/><rect class="cls-6" x="178.9" y="138.37" width="47.95" height="47.95" rx="15.22" ry="15.22"/><rect class="cls-6" x="170.44" y="186.32" width="64.87" height="76.15" rx="22.31" ry="22.31"/><rect class="cls-6" x="248.63" y="138.37" width="47.95" height="47.95" rx="15.22" ry="15.22"/><rect class="cls-6" x="240.17" y="186.32" width="64.87" height="76.15" rx="22.31" ry="22.31"/><rect class="cls-6" x="319.14" y="138.18" width="47.95" height="47.95" rx="15.22" ry="15.22"/><rect class="cls-6" x="310.68" y="186.13" width="64.87" height="76.15" rx="22.31" ry="22.31"/><rect class="cls-6" x="389.65" y="138.18" width="47.95" height="47.95" rx="15.22" ry="15.22"/><rect class="cls-6" x="381.19" y="186.13" width="64.87" height="76.15" rx="22.31" ry="22.31"/><rect class="cls-6" x="460.16" y="138.18" width="47.95" height="47.95" rx="15.22" ry="15.22"/><rect class="cls-6" x="451.7" y="186.13" width="64.87" height="76.15" rx="22.31" ry="22.31"/><rect class="cls-6" x="529.6" y="138.18" width="47.95" height="47.95" rx="15.22" ry="15.22"/><rect class="cls-6" x="521.14" y="186.13" width="64.87" height="76.15" rx="22.31" ry="22.31"/><rect class="cls-6" x="600.11" y="138.18" width="47.95" height="47.95" rx="15.22" ry="15.22"/><rect class="cls-6" x="591.65" y="186.13" width="64.87" height="76.15" rx="22.31" ry="22.31"/><rect class="cls-6" x="670.62" y="138.18" width="47.95" height="47.95" rx="15.22" ry="15.22"/><rect class="cls-6" x="662.16" y="186.13" width="64.87" height="76.15" rx="22.31" ry="22.31"/><rect class="cls-6" x="741.13" y="138.18" width="47.95" height="47.95" rx="15.22" ry="15.22"/><rect class="cls-6" x="732.67" y="186.13" width="64.87" height="76.15" rx="22.31" ry="22.31"/><rect class="cls-6" x="810.86" y="138.18" width="47.95" height="47.95" rx="15.22" ry="15.22"/><rect class="cls-6" x="802.4" y="186.13" width="64.87" height="76.15" rx="22.31" ry="22.31"/><rect class="cls-6" x="881.37" y="137.99" width="47.95" height="47.95" rx="15.22" ry="15.22"/><rect class="cls-6" x="872.91" y="185.93" width="64.87" height="76.15" rx="22.31" ry="22.31"/><rect class="cls-6" x="951.88" y="137.99" width="47.95" height="47.95" rx="15.22" ry="15.22"/><rect class="cls-6" x="943.41" y="185.93" width="64.87" height="76.15" rx="22.31" ry="22.31"/><rect class="cls-8" x="1.09" y="197.8" width="47.95" height="47.95" rx="15.22" ry="15.22"/><rect class="cls-8" x="-7.37" y="245.75" width="64.87" height="76.15" rx="22.31" ry="22.31"/><rect class="cls-8" x="71.6" y="197.8" width="47.95" height="47.95" rx="15.22" ry="15.22"/><rect class="cls-8" x="63.13" y="245.75" width="64.87" height="76.15" rx="22.31" ry="22.31"/><rect class="cls-8" x="142.1" y="197.8" width="47.95" height="47.95" rx="15.22" ry="15.22"/><rect class="cls-8" x="133.64" y="245.75" width="64.87" height="76.15" rx="22.31" ry="22.31"/><rect class="cls-8" x="211.83" y="197.8" width="47.95" height="47.95" rx="15.22" ry="15.22"/><rect class="cls-8" x="203.37" y="245.75" width="64.87" height="76.15" rx="22.31" ry="22.31"/><rect class="cls-8" x="282.34" y="197.61" width="47.95" height="47.95" rx="15.22" ry="15.22"/><rect class="cls-8" x="273.88" y="245.55" width="64.87" height="76.15" rx="22.31" ry="22.31"/><rect class="cls-8" x="352.85" y="197.61" width="47.95" height="47.95" rx="15.22" ry="15.22"/><rect class="cls-8" x="344.39" y="245.55" width="64.87" height="76.15" rx="22.31" ry="22.31"/><rect class="cls-8" x="423.36" y="197.61" width="47.95" height="47.95" rx="15.22" ry="15.22"/><rect class="cls-8" x="414.9" y="245.55" width="64.87" height="76.15" rx="22.31" ry="22.31"/><rect class="cls-8" x="492.8" y="197.61" width="47.95" height="47.95" rx="15.22" ry="15.22"/><rect class="cls-8" x="484.34" y="245.55" width="64.87" height="76.15" rx="22.31" ry="22.31"/><rect class="cls-8" x="563.31" y="197.61" width="47.95" height="47.95" rx="15.22" ry="15.22"/><rect class="cls-8" x="554.85" y="245.55" width="64.87" height="76.15" rx="22.31" ry="22.31"/><rect class="cls-8" x="633.82" y="197.61" width="47.95" height="47.95" rx="15.22" ry="15.22"/><rect class="cls-8" x="625.36" y="245.55" width="64.87" height="76.15" rx="22.31" ry="22.31"/><rect class="cls-8" x="704.33" y="197.61" width="47.95" height="47.95" rx="15.22" ry="15.22"/><rect class="cls-8" x="695.87" y="245.55" width="64.87" height="76.15" rx="22.31" ry="22.31"/><rect class="cls-8" x="774.06" y="197.61" width="47.95" height="47.95" rx="15.22" ry="15.22"/><rect class="cls-8" x="765.6" y="245.55" width="64.87" height="76.15" rx="22.31" ry="22.31"/><rect class="cls-8" x="844.57" y="197.41" width="47.95" height="47.95" rx="15.22" ry="15.22"/><rect class="cls-8" x="836.1" y="245.36" width="64.87" height="76.15" rx="22.31" ry="22.31"/><rect class="cls-8" x="915.07" y="197.41" width="47.95" height="47.95" rx="15.22" ry="15.22"/><rect class="cls-8" x="906.61" y="245.36" width="64.87" height="76.15" rx="22.31" ry="22.31"/><rect class="cls-9" x="-22.19" y="307.33" width="1004.39" height="354.7"/><rect class="cls-10" x="-90.53" y="233.3" width="1195.37" height="9.6"/><rect class="cls-11" x="-118.36" y="269.29" width="1195.37" height="9.6"/><rect class="cls-12" x="-107.4" y="194.51" width="1195.37" height="9.6"/></g></g></svg>