<svg id="Layer_1" data-name="Layer 1" xmlns="http://www.w3.org/2000/svg" viewBox="0 0 1000 1000"><defs><style>.cls-1{fill:#cb9f84;}.cls-2{fill:#223cd3;}.cls-3{fill:#0d1e54;}.cls-4{fill:#0e2896;}.cls-5{fill:#871a2f;}.cls-6{fill:#ea2d13;}.cls-7{fill:#9476a5;opacity:0.5;}.cls-8{fill:#e27b27;}.cls-9{fill:#e2b9a3;}</style></defs><title>boxing_vn-bloody-7hit</title><rect class="cls-1" x="411.279" y="658.323" width="137" height="273" rx="68.5" ry="68.5" transform="translate(1025.943 1545.581) rotate(175.081)"/><rect class="cls-1" x="454.915" y="669.689" width="137" height="273" rx="68.5" ry="68.5" transform="translate(530.055 1767.365) rotate(-147.402)"/><path class="cls-2" d="M603.454,1000H830.392l118.25-362.75c0-65.038-53.213-118.25-118.25-118.25H603.454c-65.038,0-118.25,53.212-118.25,118.25Z"/><circle class="cls-1" cx="601.875" cy="636" r="117"/><path class="cls-2" d="M603.454,1000H830.392V519H603.454c-49.231,98.74-55.193,105.715-96.243,185.759Z"/><circle class="cls-1" cx="687.923" cy="520" r="44.901"/><circle class="cls-1" cx="831.392" cy="636" r="117"/><rect class="cls-3" x="439.637" y="699.239" width="80.606" height="157.899" rx="40.303" ry="40.303" transform="translate(-254.231 1323.084) rotate(-94.919)"/><rect class="cls-4" x="387.569" y="519.29" width="160.623" height="273" rx="68.5" ry="68.5" transform="translate(990.268 1269.048) rotate(175.081)"/><rect class="cls-4" x="506.936" y="563.967" width="80.606" height="182.424" rx="40.303" ry="40.303" transform="translate(1148.64 1261.023) rotate(175.081)"/><rect class="cls-1" x="719.251" y="607.091" width="137" height="273" rx="68.5" ry="68.5" transform="translate(1588.488 1473.18) rotate(178.99)"/><rect class="cls-1" x="671.547" y="628.359" width="137" height="273" rx="68.5" ry="68.5" transform="translate(1804.321 763.641) rotate(133.99)"/><rect class="cls-3" x="688.931" y="673.268" width="80.606" height="157.899" rx="40.303" ry="40.303" transform="translate(731.453 1799.885) rotate(-136.01)"/><rect class="cls-4" x="559.387" y="531.396" width="160.623" height="273" rx="68.5" ry="68.5" transform="translate(1564.516 671.531) rotate(133.99)"/><rect class="cls-4" x="655.642" y="525.504" width="80.606" height="182.424" rx="40.303" ry="40.303" transform="translate(1623.005 544.337) rotate(133.99)"/><polygon class="cls-1" points="637.841 265.26 576.393 281.883 560.311 393.054 617.562 401.571 637.841 265.26"/><rect class="cls-1" x="588.265" y="218.676" width="271.774" height="319.387" rx="60.811" ry="60.811" transform="translate(1384.745 859.18) rotate(-171.538)"/><path class="cls-5" d="M620.689,461.927a1.5,1.5,0,0,1-1.279-.716c-17-27.7-41.03-15.705-42.046-15.18a1.5,1.5,0,0,1-1.383-2.663c.273-.142,27.5-13.853,45.985,16.274a1.5,1.5,0,0,1-1.277,2.284Z"/><circle class="cls-6" cx="728.359" cy="372.212" r="19.771" transform="matrix(0.147, -0.989, 0.989, 0.147, 253.019, 1037.871)"/><circle class="cls-7" cx="611.667" cy="341.88" r="32.593" transform="translate(36.545 742.197) rotate(-64.042)"/><path class="cls-1" d="M576.393,281.883l3.75-25.206c4.922-33.082,36.329-55.777,69.411-50.856L821.468,231.4c33.082,4.922,56.374,35.754,51.452,68.837l-3.75,25.206Z"/><circle class="cls-7" cx="774.55" cy="301.253" r="53.422" transform="translate(164.662 865.803) rotate(-64.042)"/><path class="cls-8" d="M562.842,311.511l.788-5.594A13.376,13.376,0,0,1,578.8,294.571l49.568,6.98a13.427,13.427,0,0,1,11.507,15.1l-.788,5.594Z"/><circle class="cls-9" cx="700.149" cy="404.332" r="46.938" transform="matrix(0.147, -0.989, 0.989, 0.147, 197.19, 1037.362)"/><circle class="cls-1" cx="584.948" cy="396.719" r="24.908" transform="translate(106.472 916.922) rotate(-81.538)"/><path class="cls-5" d="M688.712,414.127a1.5,1.5,0,0,1-.672-2.689l21.481-15.918a1.5,1.5,0,1,1,1.786,2.41l-21.481,15.918A1.5,1.5,0,0,1,688.712,414.127Z"/><path class="cls-5" d="M707.412,416.909a1.5,1.5,0,0,1-.984-.591L690.51,394.836a1.5,1.5,0,0,1,2.41-1.786l15.918,21.481a1.5,1.5,0,0,1-1.426,2.377Z"/><circle class="cls-6" cx="590.032" cy="425.79" r="10" transform="translate(82.054 946.743) rotate(-81.538)"/><circle class="cls-6" cx="746.673" cy="297.105" r="10" transform="translate(342.928 991.931) rotate(-81.538)"/><circle class="cls-6" cx="709.683" cy="273.36" r="40.082" transform="translate(334.868 935.093) rotate(-81.538)"/><circle class="cls-6" cx="765.469" cy="284.247" r="20.327" transform="translate(371.676 999.556) rotate(-81.538)"/><path class="cls-5" d="M621.774,359.253a1.493,1.493,0,0,1-.935-.328L588.315,332.96a1.5,1.5,0,0,1,1.871-2.344l32.524,25.965a1.5,1.5,0,0,1-.937,2.672Z"/><path class="cls-5" d="M625.689,335.994l-.089,0-35.653-2.1a1.5,1.5,0,0,1-1.409-1.585,1.483,1.483,0,0,1,1.585-1.409l35.653,2.1a1.5,1.5,0,0,1-.087,3Z"/></svg>