<svg id="Layer_1" data-name="Layer 1" xmlns="http://www.w3.org/2000/svg" viewBox="0 0 1000 1000"><defs><style>.cls-1{fill:#cb9f84;}.cls-2{fill:#223cd3;}.cls-3{fill:#0d1e54;}.cls-4{fill:#0e2896;}.cls-5{fill:#ea2d13;}.cls-6{fill:#9476a5;opacity:0.8;}.cls-7{fill:#e27b27;}.cls-8{fill:#e2b9a3;}.cls-9{fill:#871a2f;}</style></defs><title>boxing</title><rect class="cls-1" x="411.279" y="658.323" width="137" height="273" rx="68.5" ry="68.5" transform="translate(1025.943 1545.581) rotate(175.081)"/><rect class="cls-1" x="454.915" y="669.689" width="137" height="273" rx="68.5" ry="68.5" transform="translate(530.055 1767.365) rotate(-147.402)"/><path class="cls-2" d="M603.454,1000H830.392l118.25-362.75c0-65.038-53.213-118.25-118.25-118.25H603.454c-65.038,0-118.25,53.212-118.25,118.25Z"/><circle class="cls-1" cx="601.875" cy="636" r="117"/><path class="cls-2" d="M603.454,1000H830.392V519H603.454c-49.231,98.74-55.193,105.715-96.243,185.759Z"/><circle class="cls-1" cx="687.923" cy="520" r="44.901"/><circle class="cls-1" cx="831.392" cy="636" r="117"/><rect class="cls-3" x="439.637" y="699.239" width="80.606" height="157.899" rx="40.303" ry="40.303" transform="translate(-254.231 1323.084) rotate(-94.919)"/><rect class="cls-4" x="387.569" y="519.29" width="160.623" height="273" rx="68.5" ry="68.5" transform="translate(990.268 1269.048) rotate(175.081)"/><rect class="cls-4" x="506.936" y="563.967" width="80.606" height="182.424" rx="40.303" ry="40.303" transform="translate(1148.64 1261.023) rotate(175.081)"/><rect class="cls-1" x="719.251" y="607.091" width="137" height="273" rx="68.5" ry="68.5" transform="translate(1588.488 1473.18) rotate(178.99)"/><rect class="cls-1" x="671.547" y="628.359" width="137" height="273" rx="68.5" ry="68.5" transform="translate(1804.321 763.641) rotate(133.99)"/><rect class="cls-3" x="688.931" y="673.268" width="80.606" height="157.899" rx="40.303" ry="40.303" transform="translate(731.453 1799.885) rotate(-136.01)"/><rect class="cls-4" x="559.387" y="531.396" width="160.623" height="273" rx="68.5" ry="68.5" transform="translate(1564.516 671.531) rotate(133.99)"/><rect class="cls-4" x="655.642" y="525.504" width="80.606" height="182.424" rx="40.303" ry="40.303" transform="translate(1623.005 544.337) rotate(133.99)"/><polygon class="cls-1" points="639.004 265.126 577.531 281.659 561.289 392.807 618.527 401.407 639.004 265.126"/><rect class="cls-1" x="589.264" y="218.667" width="271.774" height="319.387" rx="60.811" ry="60.811" transform="translate(1386.034 860.267) rotate(-171.455)"/><circle class="cls-5" cx="729.366" cy="372.209" r="19.771" transform="translate(252.916 1038.175) rotate(-81.455)"/><circle class="cls-6" cx="612.719" cy="341.708" r="32.593" transform="translate(36.71 742.211) rotate(-63.959)"/><path class="cls-1" d="M577.531,281.659l3.787-25.2c4.97-33.075,36.41-55.725,69.485-50.755L822.68,231.528c33.075,4.97,56.322,35.836,51.352,68.911l-3.787,25.2Z"/><circle class="cls-6" cx="775.66" cy="301.317" r="53.422" transform="translate(164.409 865.952) rotate(-63.959)"/><circle class="cls-6" cx="833.008" cy="370.052" r="24.966" transform="translate(134.823 956.037) rotate(-63.959)"/><circle class="cls-6" cx="637.908" cy="459.117" r="33.212" transform="translate(-54.649 830.708) rotate(-63.959)"/><path class="cls-7" d="M563.938,311.268l.8-5.593a13.376,13.376,0,0,1,15.189-11.324L629.48,301.4a13.427,13.427,0,0,1,11.486,15.12l-.8,5.593Z"/><circle class="cls-8" cx="701.11" cy="404.288" r="46.938" transform="translate(197.135 1037.544) rotate(-81.455)"/><circle class="cls-1" cx="585.92" cy="396.508" r="24.908" transform="translate(106.755 917.009) rotate(-81.455)"/><path class="cls-9" d="M689.659,414.066a1.5,1.5,0,0,1-.668-2.69l21.5-15.886a1.5,1.5,0,1,1,1.782,2.413l-21.5,15.886A1.5,1.5,0,0,1,689.659,414.066Z"/><path class="cls-9" d="M708.354,416.875a1.5,1.5,0,0,1-.983-.592l-15.886-21.5A1.5,1.5,0,1,1,693.9,393l15.886,21.5a1.5,1.5,0,0,1-1.429,2.375Z"/><circle class="cls-5" cx="590.962" cy="425.586" r="10" transform="translate(82.292 946.752) rotate(-81.455)"/><circle class="cls-5" cx="643.945" cy="227.49" r="10" transform="translate(323.299 830.485) rotate(-81.455)"/><circle class="cls-5" cx="628.262" cy="457.668" r="10" transform="translate(82.324 1010.954) rotate(-81.455)"/><circle class="cls-5" cx="741.532" cy="497.809" r="19.716" transform="translate(139.068 1157.143) rotate(-81.455)"/><circle class="cls-5" cx="747.789" cy="297.129" r="10" transform="translate(342.848 992.469) rotate(-81.455)"/><circle class="cls-5" cx="710.834" cy="273.33" r="40.082" transform="translate(334.918 935.661) rotate(-81.455)"/><circle class="cls-5" cx="766.604" cy="284.298" r="20.327" transform="translate(371.555 1000.15) rotate(-81.455)"/><circle class="cls-5" cx="766.909" cy="419.07" r="20.327" transform="translate(238.54 1115.198) rotate(-81.455)"/><circle class="cls-5" cx="632.888" cy="370.578" r="20.327" transform="translate(172.386 941.379) rotate(-81.455)"/><path class="cls-9" d="M621.774,359.253a1.493,1.493,0,0,1-.935-.328L588.315,332.96a1.5,1.5,0,0,1,1.871-2.344l32.524,25.965a1.5,1.5,0,0,1-.937,2.672Z"/><path class="cls-9" d="M625.689,335.994l-.089,0-35.653-2.1a1.5,1.5,0,0,1-1.409-1.585,1.483,1.483,0,0,1,1.585-1.409l35.653,2.1a1.5,1.5,0,0,1-.087,3Z"/><path class="cls-9" d="M620.689,461.927a1.5,1.5,0,0,1-1.279-.716c-17-27.7-41.03-15.705-42.046-15.18a1.5,1.5,0,0,1-1.383-2.663c.273-.142,27.5-13.853,45.985,16.274a1.5,1.5,0,0,1-1.277,2.284Z"/></svg>