<svg id="Layer_1" data-name="Layer 1" xmlns="http://www.w3.org/2000/svg" viewBox="0 0 1000 1000"><defs><style>.cls-1{fill:#cb9f84;}.cls-2{fill:#223cd3;}.cls-3{fill:#0d1e54;}.cls-4{fill:#0e2896;}.cls-5{fill:#ea2d13;}.cls-6{fill:#9476a5;opacity:0.8;}.cls-7{fill:#e27b27;}.cls-8{fill:#e2b9a3;}.cls-9{fill:#2b2016;}.cls-10{fill:#871a2f;}</style></defs><title>boxing</title><rect class="cls-1" x="333.322" y="637.783" width="137" height="273" rx="68.5" ry="68.5" transform="translate(1059.751 1347.087) rotate(158.471)"/><rect class="cls-1" x="378.386" y="636.201" width="137" height="273" rx="68.5" ry="68.5" transform="translate(663.666 1638.6) rotate(-164.013)"/><path class="cls-2" d="M565.913,1000H792.85L911.1,637.25C911.1,572.213,857.888,519,792.85,519H565.913c-65.038,0-118.25,53.212-118.25,118.25Z"/><circle class="cls-1" cx="564.333" cy="636" r="117"/><path class="cls-2" d="M565.913,1000H792.85V519H565.913c-49.231,98.74-55.193,105.715-96.243,185.759Z"/><circle class="cls-1" cx="650.382" cy="520" r="44.901"/><circle class="cls-1" cx="793.85" cy="636" r="117"/><rect class="cls-1" x="788.882" y="618" width="137" height="273" rx="68.5" ry="68.5" transform="translate(1935.544 1131.247) rotate(157.913)"/><rect class="cls-1" x="752.018" y="655" width="137" height="273" rx="68.5" ry="68.5" transform="translate(1869.022 343.885) rotate(112.913)"/><rect class="cls-3" x="765.579" y="704.643" width="80.606" height="157.899" rx="40.303" ry="40.303" transform="translate(1243.094 1819.114) rotate(-157.087)"/><rect class="cls-4" x="611.701" y="600.611" width="160.623" height="273" rx="68.5" ry="68.5" transform="translate(1640.388 386.685) rotate(112.913)"/><rect class="cls-4" x="685.788" y="577.915" width="80.606" height="182.424" rx="40.303" ry="40.303" transform="translate(1625.115 260.843) rotate(112.913)"/><rect class="cls-3" x="356.917" y="679.347" width="80.606" height="157.899" rx="40.303" ry="40.303" transform="translate(-162.402 1406.078) rotate(-111.529)"/><rect class="cls-4" x="270.364" y="507.954" width="160.623" height="273" rx="68.5" ry="68.5" transform="translate(913.383 1115.256) rotate(158.471)"/><rect class="cls-4" x="386.245" y="529.97" width="80.606" height="182.424" rx="40.303" ry="40.303" transform="translate(1051.293 1042.494) rotate(158.471)"/><circle class="cls-5" cx="564.074" cy="571.854" r="10"/><circle class="cls-5" cx="606.962" cy="607.131" r="10"/><polygon class="cls-1" points="536.333 260.516 478 286 478.453 398.327 536.333 398.327 536.333 260.516"/><rect class="cls-1" x="502.462" y="200" width="271.774" height="319.387" rx="60.811" ry="60.811" transform="translate(1276.699 719.387) rotate(-180)"/><circle class="cls-5" cx="641.604" cy="352.984" r="19.771"/><circle class="cls-6" cx="521.719" cy="340.154" r="32.593" transform="matrix(0.301, -0.954, 0.954, 0.301, 40.453, 735.474)"/><path class="cls-1" d="M478,286V260.516C478,227.07,505.726,200,539.172,200H712.978C746.425,200,774,227.07,774,260.516V286Z"/><circle class="cls-6" cx="676.85" cy="276" r="53.422" transform="translate(210.132 838.563) rotate(-72.504)"/><circle class="cls-6" cx="743.774" cy="335.452" r="24.966" transform="translate(200.235 943.969) rotate(-72.504)"/><circle class="cls-6" cx="564.074" cy="452.517" r="33.212" transform="translate(-37.091 854.452) rotate(-72.504)"/><path class="cls-7" d="M468.957,317.3l-.044-5.649A13.376,13.376,0,0,1,482.251,298.2l50.055-.39a13.427,13.427,0,0,1,13.6,13.245l.044,5.649Z"/><circle class="cls-8" cx="618.427" cy="388.906" r="46.938"/><circle class="cls-9" cx="518.341" cy="335.452" r="9.928"/><circle class="cls-1" cx="503.361" cy="398.327" r="24.908"/><path class="cls-10" d="M502.36,445.339a1.5,1.5,0,0,1-1.5-1.5,1.526,1.526,0,0,1,1.5-1.531c.34,0,34.187-.308,53.562-.308h.021a1.523,1.523,0,0,1,.021,3.046C536.568,445.32,502.7,445.339,502.36,445.339Z"/><path class="cls-10" d="M608.557,400.276a1.5,1.5,0,0,1-1.061-2.561L626.4,378.811a1.5,1.5,0,1,1,2.121,2.121l-18.905,18.905A1.5,1.5,0,0,1,608.557,400.276Z"/><path class="cls-10" d="M627.462,400.276a1.5,1.5,0,0,1-1.061-.439L607.5,380.932a1.5,1.5,0,1,1,2.121-2.121l18.905,18.905a1.5,1.5,0,0,1-1.061,2.561Z"/><circle class="cls-5" cx="512.667" cy="426.333" r="10"/><circle class="cls-5" cx="535.627" cy="222.564" r="10"/><circle class="cls-5" cx="554.32" cy="452.517" r="10"/><circle class="cls-5" cx="672.297" cy="475.383" r="19.716"/><circle class="cls-5" cx="648.667" cy="276" r="10"/><circle class="cls-5" cx="608.585" cy="257.957" r="40.082"/><circle class="cls-5" cx="665.365" cy="260.516" r="20.327"/><circle class="cls-5" cx="685.693" cy="393.747" r="20.327"/><circle class="cls-5" cx="545.954" cy="365.707" r="20.327"/></svg>