<svg id="Layer_1" data-name="Layer 1" xmlns="http://www.w3.org/2000/svg" viewBox="0 0 1000 1000"><defs><style>.cls-1{fill:#cb9f84;}.cls-2{fill:#e10004;}.cls-3{fill:#696e7c;}.cls-4{fill:#84000d;}.cls-5{fill:#ba0009;}.cls-6{fill:#664a33;}.cls-7{fill:#2b2016;}.cls-8{fill:#e2b9a3;}.cls-9{fill:#871a2f;}</style></defs><title>boxing</title><rect class="cls-1" x="666.302" y="366.068" width="137" height="273" rx="68.5" ry="68.5" transform="translate(631.21 -381.614) rotate(48.947)"/><rect class="cls-1" x="548.964" y="430.226" width="137" height="273" rx="68.5" ry="68.5" transform="translate(239.469 1314.764) rotate(-105.738)"/><path class="cls-2" d="M436.969,1000H210.031L91.781,637.25c0-65.038,53.213-118.25,118.25-118.25H436.969c65.038,0,118.25,53.212,118.25,118.25Z"/><circle class="cls-1" cx="438.548" cy="636" r="117"/><path class="cls-2" d="M436.969,1000H210.031V519H436.969c49.231,98.74,55.193,105.715,96.243,185.759Z"/><ellipse class="cls-1" cx="361.532" cy="552.38" rx="62.105" ry="85.418" transform="translate(-103.169 83.464) rotate(-11.537)"/><path class="cls-3" d="M367.821,566.452q-1.118,0-2.241-.036c-38.136-1.228-67.588-33.9-67.882-34.226a1.5,1.5,0,0,1,2.243-1.993c.285.32,28.918,32.046,65.755,33.222,19.826.628,38.543-7.62,55.632-24.526a1.5,1.5,0,0,1,2.11,2.133C406.375,557.905,387.674,566.452,367.821,566.452Z"/><path class="cls-3" d="M384.871,602.5a1.488,1.488,0,0,1-.647-.147c-14.551-6.976-19.488-19.688-14.673-37.786a1.5,1.5,0,0,1,2.9.771c-4.453,16.735-.177,27.958,13.071,34.31a1.5,1.5,0,0,1-.649,2.853Z"/><rect class="cls-3" x="386.279" y="591.4" width="3.333" height="31.333" transform="translate(-150.121 127.988) rotate(-15.738)"/><rect class="cls-3" x="385.461" y="594.565" width="3" height="16.208" transform="translate(862.073 66.744) rotate(74.262)"/><circle class="cls-1" cx="209.031" cy="636" r="117"/><rect class="cls-1" x="77" y="618" width="137" height="273" rx="68.5" ry="68.5" transform="translate(294.377 0.659) rotate(22.087)"/><rect class="cls-1" x="113.864" y="655" width="137" height="273" rx="68.5" ry="68.5" transform="translate(840.41 315.365) rotate(67.087)"/><rect class="cls-4" x="156.697" y="704.643" width="80.606" height="157.899" rx="40.303" ry="40.303" transform="translate(-289.537 138.528) rotate(-22.913)"/><rect class="cls-5" x="230.557" y="600.611" width="160.623" height="273" rx="68.5" ry="68.5" transform="translate(868.785 163.787) rotate(67.087)"/><rect class="cls-5" x="236.487" y="577.915" width="80.606" height="182.424" rx="40.303" ry="40.303" transform="translate(785.356 153.661) rotate(67.087)"/><rect class="cls-4" x="705.946" y="411.547" width="80.606" height="157.899" rx="40.303" ry="40.303" transform="translate(-138.637 610.709) rotate(-41.053)"/><rect class="cls-1" x="466.548" y="260.516" width="57.881" height="137.811"/><rect class="cls-1" x="228.645" y="247.613" width="271.774" height="271.774" rx="60.811" ry="60.811"/><rect class="cls-6" x="197.194" y="199.705" width="228.553" height="228.553" rx="60.811" ry="60.811"/><path class="cls-7" d="M545,286V260.516C545,227.07,517.156,200,483.71,200H257.9c-33.446,0-60.9,27.07-60.9,60.516V286Z"/><path class="cls-7" d="M533.925,317.3l.044-5.649A13.376,13.376,0,0,0,520.631,298.2l-50.055-.39a13.427,13.427,0,0,0-13.6,13.245l-.044,5.649Z"/><circle class="cls-8" cx="384.454" cy="388.906" r="46.938"/><circle class="cls-7" cx="484.541" cy="335.452" r="9.928"/><circle class="cls-1" cx="499.521" cy="398.327" r="24.908"/><path class="cls-9" d="M500.521,445.339c-.34,0-34.208,0-53.6-.278a1.5,1.5,0,0,1,.043-3c19.375.275,53.222.278,53.562.278a1.5,1.5,0,0,1,0,3Z"/><path class="cls-9" d="M394.325,400.276a1.5,1.5,0,0,1-1.061-.439l-18.906-18.905a1.5,1.5,0,0,1,2.121-2.121l18.906,18.905a1.5,1.5,0,0,1-1.061,2.561Z"/><path class="cls-9" d="M375.419,400.276a1.5,1.5,0,0,1-1.061-2.561l18.906-18.905a1.5,1.5,0,1,1,2.121,2.121L376.48,399.837A1.5,1.5,0,0,1,375.419,400.276Z"/><rect class="cls-5" x="759.676" y="274.374" width="160.623" height="273" rx="68.5" ry="68.5" transform="translate(598.168 -492.409) rotate(48.947)"/><rect class="cls-5" x="743.052" y="264.067" width="80.606" height="182.424" rx="40.303" ry="40.303" transform="translate(536.804 -468.784) rotate(48.947)"/></svg>