<svg id="Layer_1" data-name="Layer 1" xmlns="http://www.w3.org/2000/svg" viewBox="0 0 1000 1000"><defs><style>.cls-1{fill:#cb9f84;}.cls-2{fill:#223cd3;}.cls-3{fill:#0d1e54;}.cls-4{fill:#0e2896;}.cls-5{fill:#e27b27;}.cls-6{fill:#e2b9a3;}.cls-7{fill:#2b2016;}.cls-8{fill:#871a2f;}</style></defs><title>boxing</title><rect class="cls-1" x="173.359" y="397.368" width="137" height="273" rx="68.5" ry="68.5" transform="translate(800.866 709.994) rotate(131.86)"/><rect class="cls-1" x="305.747" y="457.158" width="137" height="273" rx="68.5" ry="68.5" transform="translate(-269.096 874.016) rotate(-81.319)"/><path class="cls-2" d="M563.913,1000H790.85L909.1,637.25C909.1,572.213,855.888,519,790.85,519H563.913c-65.038,0-118.25,53.212-118.25,118.25Z"/><circle class="cls-1" cx="562.333" cy="636" r="117"/><path class="cls-2" d="M563.913,1000H790.85V519H563.913c-49.231,98.74-55.193,105.715-96.243,185.759Z"/><circle class="cls-1" cx="648.382" cy="520" r="44.901"/><circle class="cls-1" cx="791.85" cy="636" r="117"/><rect class="cls-1" x="786.882" y="618" width="137" height="273" rx="68.5" ry="68.5" transform="translate(1931.691 1131.999) rotate(157.913)"/><rect class="cls-1" x="750.018" y="655" width="137" height="273" rx="68.5" ry="68.5" transform="translate(1866.244 345.727) rotate(112.913)"/><rect class="cls-3" x="763.579" y="704.643" width="80.606" height="157.899" rx="40.303" ry="40.303" transform="translate(1239.252 1818.336) rotate(-157.087)"/><rect class="cls-4" x="609.701" y="600.611" width="160.623" height="273" rx="68.5" ry="68.5" transform="translate(1637.61 388.527) rotate(112.913)"/><rect class="cls-4" x="683.788" y="577.915" width="80.606" height="182.424" rx="40.303" ry="40.303" transform="translate(1622.337 262.686) rotate(112.913)"/><rect class="cls-3" x="190.28" y="442.687" width="80.606" height="157.899" rx="40.303" ry="40.303" transform="translate(54.221 1064.009) rotate(-138.14)"/><polygon class="cls-1" points="534.333 260.516 476 286 476.453 398.327 534.333 398.327 534.333 260.516"/><rect class="cls-1" x="500.462" y="200" width="271.774" height="319.387" rx="60.811" ry="60.811" transform="translate(1272.699 719.387) rotate(-180)"/><path class="cls-1" d="M476,286V260.516C476,227.07,503.726,200,537.172,200H710.978C744.425,200,772,227.07,772,260.516V286Z"/><path class="cls-5" d="M466.957,317.3l-.044-5.649A13.376,13.376,0,0,1,480.251,298.2l50.055-.39a13.427,13.427,0,0,1,13.6,13.245l.044,5.649Z"/><circle class="cls-6" cx="616.427" cy="388.906" r="46.938"/><circle class="cls-7" cx="516.341" cy="335.452" r="9.928"/><circle class="cls-1" cx="501.361" cy="398.327" r="24.908"/><path class="cls-8" d="M500.36,445.339a1.5,1.5,0,0,1-1.5-1.5,1.526,1.526,0,0,1,1.5-1.531c.34,0,34.187-.308,53.562-.308h.021a1.523,1.523,0,0,1,.021,3.046C534.568,445.32,500.7,445.339,500.36,445.339Z"/><path class="cls-8" d="M606.557,400.276a1.5,1.5,0,0,1-1.061-2.561L624.4,378.811a1.5,1.5,0,1,1,2.121,2.121l-18.905,18.905A1.5,1.5,0,0,1,606.557,400.276Z"/><path class="cls-8" d="M625.462,400.276a1.5,1.5,0,0,1-1.061-.439L605.5,380.932a1.5,1.5,0,1,1,2.121-2.121l18.905,18.905a1.5,1.5,0,0,1-1.061,2.561Z"/><rect class="cls-4" x="57.665" y="304.201" width="160.623" height="273" rx="68.5" ry="68.5" transform="translate(558.273 632.025) rotate(131.86)"/><rect class="cls-4" x="155.084" y="294.697" width="80.606" height="182.424" rx="40.303" ry="40.303" transform="translate(613.188 497.913) rotate(131.86)"/></svg>