<svg id="Layer_1" data-name="Layer 1" xmlns="http://www.w3.org/2000/svg" viewBox="0 0 1000 1000"><defs><style>.cls-1{fill:#cb9f84;}.cls-2{fill:#223cd3;}.cls-3{fill:#0d1e54;}.cls-4{fill:#0e2896;}.cls-5{fill:#9476a5;opacity:0.5;}.cls-6{fill:#871a2f;}.cls-7{fill:#e27b27;}.cls-8{fill:#e2b9a3;}</style></defs><title>boxing</title><rect class="cls-1" x="411.279" y="658.323" width="137" height="273" rx="68.5" ry="68.5" transform="translate(1025.943 1545.581) rotate(175.081)"/><rect class="cls-1" x="454.915" y="669.689" width="137" height="273" rx="68.5" ry="68.5" transform="matrix(-0.842, -0.539, 0.539, -0.842, 530.055, 1767.365)"/><path class="cls-2" d="M603.454,1000H830.392l118.25-362.75c0-65.038-53.213-118.25-118.25-118.25H603.454c-65.038,0-118.25,53.212-118.25,118.25Z"/><circle class="cls-1" cx="601.875" cy="636" r="117"/><path class="cls-2" d="M603.454,1000H830.392V519H603.454c-49.231,98.74-55.193,105.715-96.243,185.759Z"/><circle class="cls-1" cx="687.923" cy="520" r="44.901"/><circle class="cls-1" cx="831.392" cy="636" r="117"/><rect class="cls-3" x="439.637" y="699.239" width="80.606" height="157.899" rx="40.303" ry="40.303" transform="translate(-254.231 1323.084) rotate(-94.919)"/><rect class="cls-4" x="387.569" y="519.29" width="160.623" height="273" rx="68.5" ry="68.5" transform="translate(990.268 1269.048) rotate(175.081)"/><rect class="cls-4" x="506.936" y="563.967" width="80.606" height="182.424" rx="40.303" ry="40.303" transform="translate(1148.64 1261.023) rotate(175.081)"/><rect class="cls-1" x="719.251" y="607.091" width="137" height="273" rx="68.5" ry="68.5" transform="translate(1588.488 1473.18) rotate(178.99)"/><rect class="cls-1" x="671.547" y="628.359" width="137" height="273" rx="68.5" ry="68.5" transform="translate(1804.321 763.641) rotate(133.99)"/><rect class="cls-3" x="688.931" y="673.268" width="80.606" height="157.899" rx="40.303" ry="40.303" transform="translate(731.453 1799.885) rotate(-136.01)"/><rect class="cls-4" x="559.387" y="531.396" width="160.623" height="273" rx="68.5" ry="68.5" transform="translate(1564.516 671.531) rotate(133.99)"/><rect class="cls-4" x="655.642" y="525.504" width="80.606" height="182.424" rx="40.303" ry="40.303" transform="translate(1623.005 544.337) rotate(133.99)"/><polygon class="cls-1" points="634.233 290.251 577.559 281.575 560.248 393.573 617.492 402.138 634.233 290.251"/><rect class="cls-1" x="588.214" y="219.332" width="271.774" height="319.387" rx="60.811" ry="60.811" transform="translate(1384.144 861.029) rotate(-171.49)"/><circle class="cls-5" cx="608.065" cy="343.548" r="32.593" transform="matrix(0.301, -0.954, 0.954, 0.301, 97.604, 820.2)"/><path class="cls-6" d="M621.774,359.253a1.493,1.493,0,0,1-.935-.328L588.315,332.96a1.5,1.5,0,0,1,1.871-2.344l32.524,25.965a1.5,1.5,0,0,1-.937,2.672Z"/><path class="cls-6" d="M625.689,335.994l-.089,0-35.653-2.1a1.5,1.5,0,0,1-1.409-1.585,1.483,1.483,0,0,1,1.585-1.409l35.653,2.1a1.5,1.5,0,0,1-.087,3Z"/><path class="cls-1" d="M577.559,281.575l3.771-25.2c4.949-33.078,36.375-55.747,69.453-50.8l170.756,26.56c33.078,4.949,56.344,35.8,51.395,68.88l-3.771,25.2Z"/><path class="cls-7" d="M565.3,322.3l-.711-5.6a13.376,13.376,0,0,1,11.654-14.937l49.658-6.3A13.427,13.427,0,0,1,640.977,307l.711,5.6Z"/><circle class="cls-8" cx="700.076" cy="404.968" r="46.938" transform="translate(195.972 1037.412) rotate(-81.49)"/><circle class="cls-1" cx="584.882" cy="397.259" r="24.908" transform="translate(105.448 916.917) rotate(-81.49)"/><path class="cls-6" d="M688.854,414.77a1.5,1.5,0,0,1-.893-2.706l21.5-15.9a1.5,1.5,0,0,1,1.783,2.412l-21.5,15.9A1.491,1.491,0,0,1,688.854,414.77Z"/><path class="cls-6" d="M707.552,417.567a1.5,1.5,0,0,1-1.207-.608l-15.9-21.5a1.5,1.5,0,1,1,2.412-1.783l15.9,21.5a1.5,1.5,0,0,1-1.205,2.392Z"/><path class="cls-6" d="M620.689,461.927a1.5,1.5,0,0,1-1.279-.716c-17-27.7-41.03-15.705-42.046-15.18a1.5,1.5,0,0,1-1.383-2.663c.273-.142,27.5-13.853,45.985,16.274a1.5,1.5,0,0,1-1.277,2.284Z"/></svg>