<svg id="Layer_1" data-name="Layer 1" xmlns="http://www.w3.org/2000/svg" viewBox="0 0 1000 1000"><defs><style>.cls-1{fill:#cb9f84;}.cls-2{fill:#e10004;}.cls-3{fill:#696e7c;}.cls-4{fill:#84000d;}.cls-5{fill:#ba0009;}.cls-6{fill:#664a33;}.cls-7{fill:#2b2016;}.cls-8{fill:#e2b9a3;}.cls-9{fill:#9476a5;opacity:0.5;}.cls-10{fill:#871a2f;}</style></defs><title>boxing</title><rect class="cls-1" x="452.143" y="658.323" width="137" height="273" rx="68.5" ry="68.5" transform="translate(70.068 -41.715) rotate(4.919)"/><rect class="cls-1" x="408.508" y="669.689" width="137" height="273" rx="68.5" ry="68.5" transform="translate(-359.183 383.978) rotate(-32.598)"/><path class="cls-2" d="M396.969,1000H170.031L51.781,637.25c0-65.038,53.213-118.25,118.25-118.25H396.969c65.038,0,118.25,53.212,118.25,118.25Z"/><circle class="cls-1" cx="398.548" cy="636" r="117"/><path class="cls-2" d="M396.969,1000H170.031V519H396.969c49.231,98.74,55.193,105.715,96.243,185.759Z"/><ellipse class="cls-1" cx="321.532" cy="552.38" rx="62.105" ry="85.418" transform="translate(-103.977 75.464) rotate(-11.537)"/><path class="cls-3" d="M327.821,566.452q-1.118,0-2.241-.036c-38.136-1.228-67.588-33.9-67.882-34.226a1.5,1.5,0,0,1,2.243-1.993c.285.32,28.918,32.046,65.755,33.222,19.827.618,38.542-7.62,55.632-24.526a1.5,1.5,0,0,1,2.11,2.133C366.375,557.905,347.674,566.452,327.821,566.452Z"/><path class="cls-3" d="M344.871,602.5a1.488,1.488,0,0,1-.647-.147c-14.551-6.976-19.488-19.688-14.673-37.786a1.5,1.5,0,0,1,2.9.771c-4.453,16.735-.177,27.958,13.071,34.31a1.5,1.5,0,0,1-.649,2.853Z"/><rect class="cls-3" x="346.279" y="591.4" width="3.333" height="31.333" transform="translate(-151.62 117.138) rotate(-15.738)"/><rect class="cls-3" x="345.461" y="594.565" width="3" height="16.208" transform="translate(832.923 105.244) rotate(74.262)"/><circle class="cls-1" cx="169.031" cy="636" r="117"/><rect class="cls-4" x="480.181" y="699.239" width="80.606" height="157.899" rx="40.303" ry="40.303" transform="translate(-299.466 1230.03) rotate(-85.081)"/><rect class="cls-5" x="452.231" y="519.29" width="160.623" height="273" rx="68.5" ry="68.5" transform="translate(58.191 -43.247) rotate(4.919)"/><rect class="cls-5" x="412.881" y="563.967" width="80.606" height="182.424" rx="40.303" ry="40.303" transform="translate(57.846 -36.445) rotate(4.919)"/><rect class="cls-1" x="371.315" y="260.441" width="57.881" height="137.811" transform="translate(-46.53 66.561) rotate(-8.986)"/><rect class="cls-1" x="143.466" y="267.329" width="271.774" height="271.774" rx="60.811" ry="60.811" transform="translate(-59.552 48.583) rotate(-8.986)"/><rect class="cls-6" x="101.807" y="228.562" width="228.553" height="228.553" rx="60.811" ry="60.811" transform="translate(-50.898 37.96) rotate(-8.986)"/><path class="cls-7" d="M442.377,278.724l-3.98-25.171c-5.224-33.036-36.955-55.424-69.99-50.2l-223.035,35.27c-33.036,5.224-55.927,36.25-50.7,69.286l3.98,25.171Z"/><circle class="cls-8" cx="299.875" cy="405.444" r="46.938" transform="translate(-59.648 51.816) rotate(-8.986)"/><circle class="cls-1" cx="415.001" cy="396.777" r="24.908" transform="translate(-56.881 69.692) rotate(-8.986)"/><circle class="cls-9" cx="392.815" cy="344.095" r="32.593" transform="translate(-48.925 65.58) rotate(-8.986)"/><path class="cls-10" d="M382.3,465.889a1.5,1.5,0,0,1-1.391-2.062c13.224-32.775,42.353-23.777,42.646-23.681a1.5,1.5,0,0,1-.922,2.854h0c-1.087-.348-26.782-8.188-38.942,21.949A1.5,1.5,0,0,1,382.3,465.889Z"/><path class="cls-10" d="M311.165,415.151a1.487,1.487,0,0,1-.88-.287l-21.626-15.72a1.5,1.5,0,1,1,1.764-2.426l21.626,15.72a1.5,1.5,0,0,1-.883,2.713Z"/><path class="cls-10" d="M292.491,418.1a1.5,1.5,0,0,1-1.212-2.382L307,394.1a1.5,1.5,0,0,1,2.427,1.764l-15.721,21.626A1.5,1.5,0,0,1,292.491,418.1Z"/><path class="cls-10" d="M377.155,357.615a1.5,1.5,0,0,1-.753-2.8l36.01-20.866a1.5,1.5,0,1,1,1.5,2.6l-36.01,20.866A1.5,1.5,0,0,1,377.155,357.615Z"/><path class="cls-10" d="M412.3,337.235q-.068,0-.136-.006l-35.571-3.2a1.5,1.5,0,1,1,.269-2.988l35.571,3.2a1.5,1.5,0,0,1-.132,2.994Z"/><path class="cls-7" d="M439.339,329.271l1.4-5.474a13.376,13.376,0,0,0-9.725-16.259l-48.5-12.373a13.427,13.427,0,0,0-16.382,9.6l-1.4,5.474Z"/><rect class="cls-1" x="144.172" y="607.091" width="137" height="273" rx="68.5" ry="68.5" transform="translate(13.142 -3.634) rotate(1.01)"/><rect class="cls-1" x="191.876" y="628.359" width="137" height="273" rx="68.5" ry="68.5" transform="translate(629.825 46.31) rotate(46.01)"/><rect class="cls-4" x="230.886" y="673.268" width="80.606" height="157.899" rx="40.303" ry="40.303" transform="translate(-446.359 399.374) rotate(-43.99)"/><rect class="cls-5" x="280.413" y="531.396" width="160.623" height="273" rx="68.5" ry="68.5" transform="translate(590.717 -55.506) rotate(46.01)"/><rect class="cls-5" x="264.175" y="525.504" width="80.606" height="182.424" rx="40.303" ry="40.303" transform="translate(536.713 -30.673) rotate(46.01)"/></svg>