<svg id="Layer_1" data-name="Layer 1" xmlns="http://www.w3.org/2000/svg" viewBox="0 0 148.37 61.33"><defs><style>.cls-1{fill:#290e58;}.cls-2{fill:#3d2167;}.cls-3{fill:#fff;}</style></defs><title>RIOArtboard 8</title><rect class="cls-1" x="6.49" y="7.66" width="138.09" height="50.5" rx="12" ry="12"/><rect class="cls-2" x="5.49" y="4.66" width="138.09" height="50.5" rx="17.06" ry="17.06"/><rect class="cls-2" x="5.49" y="4.66" width="138.09" height="50.5" rx="12" ry="12"/><path class="cls-3" d="M30.91,38.12H26.76l0-8.84h-3v-3.5l10.21,0v3.5h-3Z"/><path class="cls-3" d="M35.24,25.79h5.32a9.07,9.07,0,0,1,1.8.19,4.56,4.56,0,0,1,1.6.65,3.5,3.5,0,0,1,1.14,1.24,3.92,3.92,0,0,1,.43,1.94,3.49,3.49,0,0,1-2.16,3.32l3.12,5H41.73l-2.35-4.42h-.12v4.41h-4Zm4,5.22H40a3.16,3.16,0,0,0,.46,0,1.38,1.38,0,0,0,.47-.15,1,1,0,0,0,.36-.31.88.88,0,0,0,.15-.53,1,1,0,0,0-.12-.52.79.79,0,0,0-.31-.29,1.23,1.23,0,0,0-.42-.12l-.42,0h-1Z"/><path class="cls-3" d="M54.68,38.17H50.54V33.11l-4.64-7.3h5l1.94,3.63,1.87-3.62h4.88l-4.91,7.28Z"/><path class="cls-3" d="M67.4,25.86h4.41L76.6,38.22H72.08l-.64-1.81H67.52L66.9,38.2H62.51Zm2.14,4.31-1,3h2Z"/><path class="cls-3" d="M83.43,38.54a7.88,7.88,0,0,1-2.71-.46,6.3,6.3,0,0,1-2.16-1.3,6,6,0,0,1-1.43-2.05,7.16,7.16,0,0,1,0-5.37,6.18,6.18,0,0,1,1.43-2.05A6.34,6.34,0,0,1,80.7,26a7.32,7.32,0,0,1,2.62-.46,8,8,0,0,1,2.74.48,5.68,5.68,0,0,1,2.12,1.29l-2.43,2.91a3,3,0,0,0-.91-.73,2.78,2.78,0,0,0-1.29-.27,2.57,2.57,0,0,0-1.83.77,3,3,0,0,0-.59.9,2.89,2.89,0,0,0-.23,1.17,3.18,3.18,0,0,0,.67,2.1,2.64,2.64,0,0,0,2.15.81,3.35,3.35,0,0,0,.54,0,1.34,1.34,0,0,0,.44-.13v-.94h-2V30.59h5.67v6.75a6.5,6.5,0,0,1-1,.48,10.14,10.14,0,0,1-1.2.37,12.69,12.69,0,0,1-1.33.25A10.29,10.29,0,0,1,83.43,38.54Z"/><path class="cls-3" d="M93.89,25.91H98.3l4.79,12.35H98.57l-.64-1.81H94l-.61,1.81H89ZM96,30.22l-1,3h2Z"/><path class="cls-3" d="M104,25.93h4.18l0,12.34H104Z"/><path class="cls-3" d="M110.47,25.95h4.13l3.51,6.26h.07L118,26H122l0,12.34H117.7l-3.4-5.9h-.07l.16,5.89h-3.94Z"/></svg>