<svg id="Layer_1" data-name="Layer 1" xmlns="http://www.w3.org/2000/svg" viewBox="0 0 180 180"><defs><style>.cls-1{fill:#1da1f2;}.cls-2{fill:#fff;}</style></defs><title>social</title><circle class="cls-1" cx="90" cy="90" r="77.799"/><path class="cls-2" d="M58.692,82.107c-.056.05-.129.152-.164.14-.2-.065-.383-.158-.574-.24a9.764,9.764,0,0,1-5.1-1.192c-1.276-.591-1.613-.157-1.455,1.071a18.3,18.3,0,0,0,4.412,10.233,19.544,19.544,0,0,0,8.661,5.526c-2.437,1.07-4.589.514-6.844.494a17.863,17.863,0,0,0,5.954,8.52c2.818,2.238,6.167,3.124,9.9,3.905A36.008,36.008,0,0,1,48.618,117.6c.3.421.354.577.466.651.469.31.943.614,1.435.886,11.808,6.523,24.308,7.942,37.336,4.845,20.969-4.985,35.91-23.988,37.164-46.323.183-3.267.939-5.523,3.493-7.5a15.136,15.136,0,0,0,4.749-5.766c-3.114.671-5.521,1.922-8.537,2.031,4.527-4.151,6.051-6.433,6.1-9.045A50.363,50.363,0,0,1,122.3,60.73a3.248,3.248,0,0,1-3.432-.792,17.593,17.593,0,0,0-27.14,5.252,16.217,16.217,0,0,0-1.845,9.763c.219,1.634-.16,2.49-1.99,2.133-.549-.107-1.12-.1-1.676-.179A49.748,49.748,0,0,1,55.1,60.09c-.762-.867-1.28-1.182-1.862.1a18.566,18.566,0,0,0-1.67,8.642c.243,5.318,2.9,9.4,6.524,13.015Z"/><path class="cls-2" d="M57.953,82.007c.191.082.378.175.574.24.035.012.108-.09.164-.14l-.6-.256Z"/></svg>