<svg id="Layer_1" data-name="Layer 1" xmlns="http://www.w3.org/2000/svg" viewBox="0 0 148.37 61.33"><defs><style>.cls-1{fill:#846a8e;}.cls-2{fill:#3d2167;}.cls-3{fill:#fff;}</style></defs><title>RIOArtboard 9</title><rect class="cls-1" x="6.14" y="7.47" width="138.09" height="50.5" rx="12" ry="12"/><rect class="cls-2" x="5.14" y="4.47" width="138.09" height="50.5" rx="17.06" ry="17.06"/><rect class="cls-3" x="5.14" y="4.47" width="138.09" height="50.5" rx="12" ry="12"/><path class="cls-2" d="M45.69,38.28a8.46,8.46,0,0,1-1.47-.13,8,8,0,0,1-1.39-.38,8.61,8.61,0,0,1-1.26-.59,6.32,6.32,0,0,1-1.06-.76L43,33.67a4.05,4.05,0,0,0,1.16.84,3.27,3.27,0,0,0,1.49.37,1.62,1.62,0,0,0,.64-.12.45.45,0,0,0,.29-.45.46.46,0,0,0-.09-.3,1.12,1.12,0,0,0-.34-.25,5.57,5.57,0,0,0-.67-.29l-1.07-.37a9.1,9.1,0,0,1-1.2-.5,4.28,4.28,0,0,1-1-.71,3.13,3.13,0,0,1-.7-1,3.42,3.42,0,0,1-.26-1.41,3.79,3.79,0,0,1,.47-2,4.1,4.1,0,0,1,1.21-1.32,5,5,0,0,1,1.67-.74,7.64,7.64,0,0,1,1.83-.22,7.12,7.12,0,0,1,2.48.48,6.65,6.65,0,0,1,2.22,1.36l-2.59,2.63a2.7,2.7,0,0,0-1-.8,2.78,2.78,0,0,0-1.1-.27,1.71,1.71,0,0,0-.73.13.44.44,0,0,0-.28.43.45.45,0,0,0,.29.42,8.06,8.06,0,0,0,.93.35q.66.21,1.39.49a5.88,5.88,0,0,1,1.35.73,3.81,3.81,0,0,1,1,1.09,3,3,0,0,1,.4,1.6,4,4,0,0,1-.45,1.94,4.19,4.19,0,0,1-1.17,1.38,5,5,0,0,1-1.63.82A6.42,6.42,0,0,1,45.69,38.28Z"/><path class="cls-2" d="M59.94,33.27H56.56V38H52.4l0-12.34h4.13V29.8h3.38V25.62H64.1l0,12.34H59.93Z"/><path class="cls-2" d="M69.84,25.64h4.41L79,38H74.52l-.64-1.81H70L69.34,38H64.95ZM72,29.95l-1,3h2Z"/><path class="cls-2" d="M79.93,25.66h5.32a9,9,0,0,1,1.8.19,4.56,4.56,0,0,1,1.6.65,3.5,3.5,0,0,1,1.14,1.24,3.92,3.92,0,0,1,.43,1.94A3.49,3.49,0,0,1,88.06,33l3.12,5H86.42L84.06,33.6h-.12V38h-4Zm4,5.22h.81a3.16,3.16,0,0,0,.46,0,1.38,1.38,0,0,0,.47-.15,1,1,0,0,0,.36-.31.88.88,0,0,0,.15-.53,1,1,0,0,0-.12-.52.79.79,0,0,0-.31-.29,1.23,1.23,0,0,0-.42-.12l-.42,0h-1Z"/><path class="cls-2" d="M92.38,25.69l8.49,0v3.45H96.27v1.06h4.31v3.22H96.26v1.15h4.88V38l-8.79,0Z"/></svg>