<svg id="Layer_1" data-name="Layer 1" xmlns="http://www.w3.org/2000/svg" viewBox="0 0 183.65 77.33"><defs><style>.cls-1{fill:#290e58;}.cls-2{fill:#3d2167;}.cls-3{fill:#fff;}</style></defs><title>RIOArtboard 7</title><rect class="cls-1" x="5.63" y="9.55" width="174.3" height="63.74" rx="17.06" ry="17.06"/><rect class="cls-2" x="3.63" y="5.55" width="174.3" height="63.74" rx="17.06" ry="17.06"/><path class="cls-3" d="M55.74,38.47H61v4.73H55.76V49H50.07l0-17.19,11.6,0v4.83H55.75Z"/><path class="cls-3" d="M64.21,31.85H70l0,17.19H64.17Z"/><path class="cls-3" d="M81.94,49.52a11,11,0,0,1-3.77-.64,8.8,8.8,0,0,1-3-1.81,8.35,8.35,0,0,1-2-2.86,10,10,0,0,1,0-7.48,8.56,8.56,0,0,1,2-2.86,8.83,8.83,0,0,1,3-1.83,10.2,10.2,0,0,1,3.64-.64,11.16,11.16,0,0,1,3.82.66,7.93,7.93,0,0,1,2.95,1.8l-3.38,4a4.11,4.11,0,0,0-1.26-1,3.87,3.87,0,0,0-1.79-.38,3.58,3.58,0,0,0-2.55,1.07,4.1,4.1,0,0,0-.83,1.25,4,4,0,0,0-.32,1.63,4.44,4.44,0,0,0,.93,2.93,3.68,3.68,0,0,0,3,1.13,4.8,4.8,0,0,0,.75-.06,1.85,1.85,0,0,0,.61-.18V43H80.93V38.44l7.89,0,0,9.39a9,9,0,0,1-1.4.67,14,14,0,0,1-1.68.52,18.55,18.55,0,0,1-1.86.35A14.44,14.44,0,0,1,81.94,49.52Z"/><path class="cls-3" d="M102.2,42.59H97.49v6.53H91.7l0-17.19h5.75v5.83h4.71V31.93H108l0,17.19h-5.78Z"/><path class="cls-3" d="M119.74,49.16H114l0-12.31h-4.22V31.95L124,32v4.88h-4.22Z"/><path class="cls-3" d="M129.57,49.57a3,3,0,0,1-1.18-.23,3.21,3.21,0,0,1-1-.62,2.75,2.75,0,0,1-.64-.92,2.9,2.9,0,0,1-.23-1.17,2.83,2.83,0,0,1,.23-1.14,2.89,2.89,0,0,1,.65-.93,3.1,3.1,0,0,1,1-.63,3.13,3.13,0,0,1,2.35,0,3.11,3.11,0,0,1,1,.63,2.89,2.89,0,0,1,.64.94,2.85,2.85,0,0,1,.23,1.14,2.91,2.91,0,0,1-.23,1.17,2.75,2.75,0,0,1-.65.92,3.2,3.2,0,0,1-1,.62A3,3,0,0,1,129.57,49.57ZM126.69,32h5.83l0,10.88h-5.83Z"/></svg>