<svg id="Layer_1" data-name="Layer 1" xmlns="http://www.w3.org/2000/svg" viewBox="0 0 271.5 97.48"><defs><style>.cls-1{fill:#008e3d;}.cls-2{fill:#fff;}.cls-3{fill:#f46025;}.cls-4{fill:#06c;}.cls-5{fill:#e81323;}</style></defs><title>RIOArtboard 14</title><path d="M17.84,67.67l.08-10h-.06l-3.68,10h-2.4l-3.58-10H8.14l.08,10H5V53.51H9.87l3.22,9.08h.08l3.08-9.08H21.2V67.67Z"/><path d="M24.1,67.67V53.51h3.44V67.67Z"/><path d="M40.6,67.42a7.58,7.58,0,0,1-3.18.63,8.29,8.29,0,0,1-3-.54,7,7,0,0,1-4-3.9,8.3,8.3,0,0,1,0-6.12A6.85,6.85,0,0,1,32,55.14a7.21,7.21,0,0,1,2.44-1.49,8.74,8.74,0,0,1,6,0,5.65,5.65,0,0,1,2.35,1.55l-2.32,2.32a2.88,2.88,0,0,0-1.26-1,4.19,4.19,0,0,0-1.6-.32,4,4,0,0,0-1.65.33,3.87,3.87,0,0,0-1.29.91,4.16,4.16,0,0,0-.84,1.37,4.86,4.86,0,0,0-.3,1.73,5,5,0,0,0,.3,1.76,4.1,4.1,0,0,0,.83,1.37,3.74,3.74,0,0,0,1.27.89,4,4,0,0,0,1.62.32,3.76,3.76,0,0,0,1.78-.4,3.45,3.45,0,0,0,1.22-1l2.38,2.24A6.75,6.75,0,0,1,40.6,67.42Z"/><path d="M53.32,67.67V61.75H47.8v5.92H44.38V53.51H47.8v5.36h5.52V53.51h3.42V67.67Z"/><path d="M69.26,67.67l-1.1-2.78H62.68l-1,2.78H57.92l5.94-14.16h3.32l5.88,14.16Zm-3.8-10.38-1.8,4.86h3.56Z"/><path d="M74.24,67.67V53.51h9.52v2.88H77.54v2.68h5.88v2.74H77.54v2.94h6.58v2.92Z"/><path d="M86.38,67.67V53.51h3.44V64.69H95.3v3Z"/><path d="M17.15,90.42A7.59,7.59,0,0,1,14,91a8.28,8.28,0,0,1-3-.54,7,7,0,0,1-4-3.9,8.29,8.29,0,0,1,0-6.12,6.84,6.84,0,0,1,1.63-2.35A7.19,7.19,0,0,1,11,76.65a8.74,8.74,0,0,1,6,0,5.66,5.66,0,0,1,2.35,1.55L17,80.53a2.87,2.87,0,0,0-1.26-1,4.19,4.19,0,0,0-1.6-.32,4,4,0,0,0-1.65.33,3.88,3.88,0,0,0-1.29.91,4.16,4.16,0,0,0-.84,1.37,4.84,4.84,0,0,0-.3,1.73,5,5,0,0,0,.3,1.76,4.1,4.1,0,0,0,.83,1.37,3.72,3.72,0,0,0,1.27.89,4,4,0,0,0,1.62.32,3.76,3.76,0,0,0,1.78-.4,3.44,3.44,0,0,0,1.22-1l2.38,2.24A6.74,6.74,0,0,1,17.15,90.42Z"/><path d="M35.45,83.53a7.9,7.9,0,0,1-.58,3.07A7,7,0,0,1,33.26,89a7.15,7.15,0,0,1-2.45,1.53,9,9,0,0,1-6.15,0A7.17,7.17,0,0,1,22.22,89a7,7,0,0,1-1.61-2.38A7.9,7.9,0,0,1,20,83.53a7.81,7.81,0,0,1,.58-3.07,6.72,6.72,0,0,1,1.61-2.33,7.18,7.18,0,0,1,2.44-1.48,9.34,9.34,0,0,1,6.15,0,7.16,7.16,0,0,1,2.45,1.48,6.72,6.72,0,0,1,1.61,2.33A7.81,7.81,0,0,1,35.45,83.53Zm-3.66,0a4.85,4.85,0,0,0-.3-1.72,4.1,4.1,0,0,0-.83-1.37,3.83,3.83,0,0,0-1.28-.9,4.06,4.06,0,0,0-1.65-.33,3.93,3.93,0,0,0-2.92,1.23A3.89,3.89,0,0,0,24,81.81a5.31,5.31,0,0,0,0,3.49,4.2,4.2,0,0,0,.83,1.39,3.8,3.8,0,0,0,1.27.91,4.25,4.25,0,0,0,3.28,0,3.91,3.91,0,0,0,1.28-.91,4.12,4.12,0,0,0,.84-1.39A5.05,5.05,0,0,0,31.79,83.53Z"/><path d="M46.71,90.67,41,81.41H41L41,90.67H37.71V76.51h3.9l5.68,9.24h.06l-.08-9.24h3.32V90.67Z"/><path d="M53.51,90.67V76.51H57V87.69h5.48v3Z"/><path d="M73.63,90.67l-1.1-2.78H67.05l-1,2.78H62.29l5.94-14.16h3.32l5.88,14.16Zm-3.8-10.38L68,85.15h3.56Z"/><path d="M87.61,90.67l-5.7-9.26h-.06l.08,9.26H78.61V76.51h3.9l5.68,9.24h.06l-.08-9.24h3.32V90.67Z"/><path d="M177.13,67.67h-3.42l-5.36-14.16h3.84l3.28,10h.08l3.26-10h3.78Z"/><path d="M183.75,67.67V53.51h3.44V64.69h5.48v3Z"/><path d="M203.87,67.67l-1.1-2.78h-5.48l-1,2.78h-3.72l5.94-14.16h3.32l5.88,14.16Zm-3.8-10.38-1.8,4.86h3.56Z"/><path d="M222.07,60.55a7,7,0,0,1-.69,3.21A6.46,6.46,0,0,1,219.56,66,7.57,7.57,0,0,1,217,67.26a10.33,10.33,0,0,1-2.88.41h-5.28V53.51H214a12.65,12.65,0,0,1,3,.35,7.44,7.44,0,0,1,2.6,1.16,5.94,5.94,0,0,1,1.84,2.17A7.28,7.28,0,0,1,222.07,60.55Zm-3.56,0a4.48,4.48,0,0,0-.39-2,3.35,3.35,0,0,0-1-1.26,4.18,4.18,0,0,0-1.48-.67,7.3,7.3,0,0,0-1.71-.2h-1.7v8.28h1.62a7.33,7.33,0,0,0,1.77-.21,4.19,4.19,0,0,0,1.5-.69,3.43,3.43,0,0,0,1-1.28A4.5,4.5,0,0,0,218.51,60.55Z"/><path d="M224.33,67.67V53.51h3.44V67.67Z"/><path d="M243.53,67.67l.08-10h-.06l-3.68,10h-2.4l-3.58-10h-.06l.08,10h-3.22V53.51h4.87l3.22,9.08h.08l3.08-9.08h4.95V67.67Z"/><path d="M249.79,67.67V53.51h3.44V67.67Z"/><path d="M263.73,67.67,260.66,62h-1.17v5.62h-3.34V53.51h5.4a9.4,9.4,0,0,1,2,.21,5.2,5.2,0,0,1,1.74.71,3.72,3.72,0,0,1,1.23,1.32,4.12,4.12,0,0,1,.46,2,3.77,3.77,0,0,1-.78,2.42,4.26,4.26,0,0,1-2.16,1.4l3.7,6.06Zm-.14-9.82a1.41,1.41,0,0,0-.21-.81,1.45,1.45,0,0,0-.54-.48,2.38,2.38,0,0,0-.74-.23,5.5,5.5,0,0,0-.79-.06h-1.83v3.3h1.63a5.5,5.5,0,0,0,.86-.07,2.78,2.78,0,0,0,.8-.25,1.45,1.45,0,0,0,.82-1.4Z"/><path d="M190.5,90.67l-5.7-9.26h-.06l.08,9.26H181.5V76.51h3.9l5.68,9.24h.06l-.08-9.24h3.32V90.67Z"/><path d="M197.3,90.67V76.51h3.44V90.67Z"/><path d="M212.3,90.67,207,84.15h0v6.52h-3.34V76.51H207v5.76h.06l5.06-5.76h4.28L210.3,83l6.46,7.64Z"/><path d="M217.88,90.67V76.51h3.44V90.67Z"/><path d="M230.3,79.43V90.67h-3.42V79.43h-4V76.51H234.3v2.92Z"/><path d="M235.86,90.67V76.51h3.44V90.67Z"/><path d="M251.22,90.67l-5.7-9.26h-.06l.08,9.26h-3.32V76.51h3.9l5.68,9.24h.06l-.08-9.24h3.32V90.67Z"/><rect class="cls-1" x="21.68" y="5.33" width="19.56" height="33.5"/><rect class="cls-2" x="41.24" y="5.33" width="19.56" height="33.5"/><rect class="cls-3" x="60.8" y="5.33" width="19.56" height="33.5"/><rect class="cls-2" x="190.68" y="5.9" width="57.67" height="10.98"/><rect class="cls-4" x="190.68" y="16.88" width="57.67" height="10.98"/><rect class="cls-5" x="190.68" y="27.85" width="57.67" height="10.98"/><path d="M100.56,11.27l14.36-1.59,6,15.46.22,0,2.27-16.38L137.24,7.2,129.12,38,115,39.53Z"/><path d="M166.11,24.39a9.32,9.32,0,0,1-.7,5.13,10,10,0,0,1-2.82,3.58,13.86,13.86,0,0,1-4,2.21,19.39,19.39,0,0,1-4.3,1,26.24,26.24,0,0,1-7.61-.26,20.15,20.15,0,0,1-6.71-2.41l5.52-8a10.76,10.76,0,0,0,3.39,1.64,9.15,9.15,0,0,0,3.59.37,3.19,3.19,0,0,0,1.23-.39.93.93,0,0,0,.49-1c-.05-.49-.44-.83-1.17-1a29.47,29.47,0,0,0-3.73-.64,16.78,16.78,0,0,1-3-.67,10.3,10.3,0,0,1-2.85-1.41,8.77,8.77,0,0,1-2.28-2.39A8,8,0,0,1,140,16.5a9.07,9.07,0,0,1,.72-5,10.58,10.58,0,0,1,2.83-3.64,14.24,14.24,0,0,1,4-2.32,17.22,17.22,0,0,1,4.23-1.06,23.6,23.6,0,0,1,6.9.26A22.66,22.66,0,0,1,165,6.85l-5.26,7.91a13.61,13.61,0,0,0-3-1.08,8.78,8.78,0,0,0-2.92-.19,4.2,4.2,0,0,0-1.54.43,1,1,0,0,0-.51,1q.06.56.79.79a20,20,0,0,0,3.3.46,17,17,0,0,1,3.49.66,12,12,0,0,1,3.16,1.47,7.94,7.94,0,0,1,3.58,6Z"/></svg>