<svg id="Layer_1" data-name="Layer 1" xmlns="http://www.w3.org/2000/svg" viewBox="0 0 303 193.95"><defs><style>.cls-1{fill:#0b7bc1;}.cls-2{font-size:34.99px;fill:#fff;font-family:AvenirNext-Heavy, Avenir Next;}.cls-3{letter-spacing:-0.01em;}.cls-4{letter-spacing:-0.02em;}.cls-5{letter-spacing:-0.04em;}.cls-6{letter-spacing:-0.06em;}.cls-7{letter-spacing:-0.02em;}</style></defs><title>RIOArtboard 17</title><path class="cls-1" d="M185.13,185.66l2.76-3.88-3-86.35,16.61-3.87,32.66-2.21,14.95-23s34,.28,35.43-8.3c0,0-1.11-6.36-17.72-3,0,0,16.61-4.71-4.42-2.49,0,0-11.35,1.39-14.12,4.15,0,0-35.15,5.26-58.95-3.6a37.94,37.94,0,0,0-24.91-4.15s6.36-41-11.07-40.13c0,0-14.95-7.75-16.05,38.2a123.82,123.82,0,0,0-45.66,6.09S63.35,57.8,46.75,54.48c0,0-3.88-4.71-17.71-4.15,0,0-6.27,1.48,7.19,3,0,0-27.4-1.11-19.09,4.71,0,0,8,8.3,34,6.64L64.74,86.86,93.8,88.24l19.37,7.19-2.49,45.39h5.54s-3.6,6.36,1.94,8.58v25.74M161.08,20.72s-3.83,2.15-6.33-.64C154.74,20.08,156.77,18.48,161.08,20.72Zm-7.57,9.56.75,0c.49,0,1,0,1.34,0a.47.47,0,0,0,.15,0,.1.1,0,0,1,.14,0l.27.24c.16.14.31.28.43.4s.22.23.3.29l.1.11-.09.12a3.23,3.23,0,0,1-.25.33c-.11.13-.25.29-.42.45l-.26.26a.13.13,0,0,1-.15,0,.5.5,0,0,0-.16,0c-.42,0-.91,0-1.44,0l-.81,0c-.28,0-.55,0-.83,0-.56-.05-1.12-.06-1.65-.15s-1-.12-1.44-.21a.7.7,0,0,0-.16,0,.11.11,0,0,1-.14-.06l-.22-.3c-.14-.18-.25-.36-.34-.5s-.16-.28-.2-.35l-.07-.13.13-.09.33-.24c.14-.09.31-.22.5-.33l.29-.19a.09.09,0,0,1,.13,0,.51.51,0,0,0,.14,0c.38.08.83.12,1.31.19s1,.09,1.52.14C153,30.27,153.25,30.27,153.51,30.28Zm-1.87-10s.14,1.25-6.36,0C145.28,20.32,148.87,16.67,151.64,20.32ZM93.46,83a.11.11,0,0,1-.11.06s-.58,0-1.61-.19l-.85-.13c-.31-.06-.63-.16-1-.25s-.72-.21-1.11-.32a9,9,0,0,1-1.21-.41c-.82-.33-1.73-.66-2.63-1.11-.46-.22-.92-.46-1.39-.7s-.95-.51-1.42-.8c-.92-.6-1.89-1.2-2.8-1.91s-1.87-1.36-2.78-2.09L75.2,74.13,73.85,73c-.9-.71-1.75-1.45-2.58-2.15s-1.61-1.4-2.36-2.06l-2.06-1.91c-2.53-2.38-4.12-4.07-4.12-4.07a.11.11,0,0,1,0-.16.12.12,0,0,1,.15,0l1.22,1c.78.64,1.9,1.55,3.26,2.62L69.57,68c.8.59,1.61,1.23,2.49,1.87s1.76,1.3,2.7,1.94l1.4,1,1.43.95c1,.64,1.93,1.23,2.9,1.8s1.94,1.1,2.85,1.66,1.8,1.05,2.63,1.59c.41.27.83.48,1.23.71l1.14.68c.73.45,1.43.77,2,1.12.31.17.59.34.86.47l.75.35c.91.44,1.43.73,1.43.73h0A.12.12,0,0,1,93.46,83Zm11.48-3.18a.11.11,0,0,1-.1,0s-.52,0-1.43-.21a10.29,10.29,0,0,1-1.6-.43c-.31-.09-.63-.21-1-.33s-.68-.28-1-.44L98.7,78c-.38-.19-.75-.41-1.14-.61s-.79-.44-1.19-.67-.79-.52-1.19-.79c-.8-.54-1.59-1.16-2.37-1.8s-1.57-1.3-2.36-2-1.56-1.32-2.33-2-1.49-1.32-2.21-2-1.39-1.26-2-1.87L82.1,64.67c-2.2-2.12-3.59-3.61-3.59-3.61a.11.11,0,0,1,0-.16.1.1,0,0,1,.15,0s1.57,1.29,4,3.18c1.2.94,2.61,2,4.12,3.18L89.08,69c.8.58,1.61,1.2,2.44,1.77s1.66,1.16,2.5,1.68L96.47,74c.38.27.77.52,1.13.79s.73.5,1.09.75c.69.51,1.36,1,2,1.38.31.21.6.43.88.62s.56.35.81.52c.51.33.95.66,1.34.86.76.44,1.2.74,1.2.74h0A.12.12,0,0,1,104.94,79.86Zm9.5,4.45c0,.44,0,.87-.05,1.29,0,.83-.09,1.61-.16,2.27-.13,1.33-.32,2.22-.32,2.22s-.19-.89-.32-2.22c-.07-.66-.13-1.44-.17-2.27,0-.42,0-.85,0-1.29l0-1.32,0-1.32c0-.44,0-.87,0-1.28,0-.83.1-1.61.17-2.28.13-1.33.32-2.22.32-2.22s.19.89.32,2.22c.07.66.13,1.44.17,2.28,0,.41,0,.85,0,1.28s0,.88,0,1.32S114.45,83.87,114.45,84.31Zm3.18-7.39c-1.09-.49-2.13-1.05-3.17-1.59s-2-1.14-3-1.72-2-1.19-2.88-1.81c-1.88-1.21-3.62-2.5-5.24-3.75s-3.1-2.5-4.42-3.7S96.37,62,95.35,61s-1.86-2-2.54-2.75-1.19-1.42-1.54-1.85l-.52-.67.61.59c.4.39,1,.93,1.76,1.62s1.71,1.51,2.8,2.44,2.36,1.93,3.75,3,2.94,2.18,4.58,3.34c.83.56,1.68,1.15,2.57,1.71l1.35.86,1.39.85c.92.59,1.9,1.11,2.87,1.68l1.5.8c.5.27,1,.55,1.51.8,1,.52,2,1.05,3.11,1.52.53.24,1,.49,1.58.72l1.61.67c1.06.47,2.16.86,3.23,1.28s2.19.74,3.27,1.12l3.26.95c1.09.26,2.16.56,3.22.79s2.12.43,3.15.62,2,.33,3,.47l2.9.31c.94.08,1.85.12,2.72.18s1.72.05,2.52.07,1.56,0,2.28,0c1.42-.08,2.67-.07,3.7-.16,2.05-.18,3.24-.26,3.24-.26s-1.15.27-3.18.69c-1,.21-2.27.36-3.7.57-.72.1-1.49.13-2.3.21s-1.67.14-2.56.13-1.83,0-2.79,0l-3-.14c-1-.09-2.07-.21-3.15-.31s-2.16-.34-3.26-.51-2.21-.47-3.35-.7-2.25-.59-3.38-.91-2.26-.71-3.38-1.12-2.25-.8-3.35-1.29l-1.65-.71C118.7,77.44,118.16,77.17,117.63,76.92Zm.53,58.19s0-.74,0-2,.13-3.15.29-5.36c.07-1.11.16-2.31.28-3.57s.22-2.6.37-4,.28-2.81.47-4.24.36-2.91.54-4.38l.62-4.36c.2-1.44.45-2.85.66-4.22s.45-2.69.67-3.94.45-2.43.66-3.52c.42-2.18.82-4,1.11-5.26s.48-2,.48-2,0,.74,0,2-.13,3.15-.29,5.36c-.08,1.11-.16,2.31-.28,3.57s-.22,2.6-.38,4-.28,2.8-.47,4.24l-.54,4.38-.61,4.36c-.19,1.44-.45,2.85-.66,4.22s-.45,2.69-.67,3.94-.44,2.43-.66,3.52c-.42,2.18-.82,4-1.11,5.25S118.15,135.11,118.15,135.11Zm12.88-14c0,2-.07,3.93-.09,5.81s-.09,3.7-.15,5.43-.13,3.36-.19,4.87c-.13,3-.29,5.53-.42,7.29l0,.25c.06.1.12.21.17.32a2.7,2.7,0,0,1,.13,1.71,3.36,3.36,0,0,1-.7,1.33,6.59,6.59,0,0,1-1.83,1.48,15.22,15.22,0,0,1-3.48,1.42c-.52.14-1,.25-1.43.34s-.81.15-1.12.2c-.63.09-1,.11-1,.11s.3-.21.84-.53,1.3-.77,2.19-1.3a32.94,32.94,0,0,0,2.9-1.88,6.1,6.1,0,0,0,1.22-1.17,1.49,1.49,0,0,0,.25-.51.49.49,0,0,0,0-.35,3,3,0,0,0-1-1,14.11,14.11,0,0,0-1.59-.93c-1.12-.56-2.23-1-3.2-1.43l-2.35-1-.9-.4s.36,0,1,0a20.26,20.26,0,0,1,2.6.19,18.42,18.42,0,0,1,3.62.86,10.47,10.47,0,0,1,2,.94,5.93,5.93,0,0,1,1.24,1c-.12-1.74-.27-4.1-.39-6.91-.07-1.51-.14-3.14-.19-4.87S129,128.85,129,127s-.09-3.83-.09-5.81,0-4,0-6,0-4,0-6,.07-3.92.09-5.81.1-3.71.15-5.43.12-3.36.19-4.87c.13-3,.29-5.53.41-7.29.06-.88.13-1.57.16-2S130,83,130,83s0,.25.06.73.11,1.16.16,2c.12,1.76.29,4.27.42,7.29.07,1.51.14,3.14.19,4.87s.12,3.55.15,5.43.09,3.83.09,5.81,0,4,0,6S131,119.18,131,121.15ZM160.89,185c-.2-.16-.46-.36-.74-.6l-.93-.9c-.36-.33-.7-.74-1.09-1.18l-.6-.69-.6-.77c-.42-.53-.86-1.1-1.29-1.73s-.9-1.27-1.34-2-.92-1.42-1.37-2.19-.92-1.57-1.38-2.41c-.93-1.66-1.86-3.44-2.77-5.3s-1.83-3.8-2.69-5.79-1.73-4-2.56-6.07-1.6-4.11-2.36-6.15-1.46-4.05-2.13-6-1.29-3.85-1.87-5.66-1.1-3.51-1.57-5.1c-.94-3.17-1.66-5.83-2.15-7.7s-.73-2.94-.73-2.94l3.77,10.34c1.14,3.1,2.46,6.71,3.91,10.56.72,1.93,1.49,3.91,2.26,5.93s1.58,4.06,2.4,6.1,1.65,4.07,2.49,6.05,1.68,3.94,2.55,5.8c.42.93.85,1.85,1.28,2.74s.83,1.77,1.26,2.6l.62,1.25.63,1.19c.4.79.81,1.54,1.22,2.25s.8,1.39,1.18,2,.76,1.24,1.14,1.79l.53.81.53.73a15.23,15.23,0,0,0,1,1.26l.82,1c.25.28.48.49.66.68l.56.56Zm.12-33.53-.62-.31-.79-.5c-.3-.18-.6-.41-.94-.66s-.7-.53-1.06-.85a30,30,0,0,1-2.37-2.24c-.83-.86-1.7-1.82-2.57-2.88s-1.77-2.18-2.63-3.39c-.45-.6-.88-1.22-1.32-1.85s-.87-1.27-1.3-1.92c-.86-1.3-1.71-2.64-2.54-4s-1.61-2.73-2.38-4.08-1.49-2.71-2.18-4-1.33-2.59-1.93-3.81-1.15-2.38-1.65-3.46c-2-4.31-3.08-7.28-3.08-7.28s1.59,2.74,3.92,6.85l4,7,2.29,3.92c.78,1.34,1.58,2.68,2.41,4s1.63,2.68,2.46,4,1.64,2.59,2.47,3.8c.4.61.82,1.2,1.22,1.78s.8,1.15,1.2,1.69c.79,1.09,1.56,2.1,2.3,3s1.44,1.72,2.1,2.41c.32.36.64.66.94.95s.56.56.83.77l.7.6.55.4.46.33Zm.53-95.23-.1,1.24-.05.62c0,.21-.07.41-.11.61l-.22,1.24c-.09.41-.22.81-.32,1.22a10.93,10.93,0,0,1-.4,1.2c-.16.39-.3.79-.47,1.18l-.56,1.15c-.18.39-.43.74-.64,1.11a11.22,11.22,0,0,1-.72,1.06,12.16,12.16,0,0,1-.79,1c-.27.34-.57.65-.87,1a12.65,12.65,0,0,1-.94.9c-.34.28-.67.56-1,.81a9.88,9.88,0,0,1-1.17.74l-.28.09c-.81.12-1.62.26-2.44.36l-1.23.1c-.41,0-.82.06-1.24.06-.83,0-1.66,0-2.48,0s-1.66-.11-2.49-.21c-.41,0-.82-.13-1.23-.2s-.82-.13-1.23-.24l-1.21-.3c-.41-.1-.8-.24-1.2-.36l-.6-.19-.59-.22c-.39-.15-.78-.29-1.16-.47l-1.13-.53c-.37-.19-.73-.4-1.1-.59s-.72-.42-1.07-.64-.71-.44-1-.68c-.69-.47-1.33-1-2-1.52l-.93-.82-.89-.86-.85-.9-.8-.94c-.52-.64-1-1.29-1.48-2s-.89-1.37-1.3-2.07-.76-1.44-1.1-2.17a19.81,19.81,0,0,1-.86-2.26c.37.72.81,1.39,1.23,2.06s.9,1.32,1.38,2,1,1.24,1.5,1.84l.79.88.82.85.85.81.87.78.9.75.93.71c.63.45,1.27.89,1.93,1.29.33.21.66.4,1,.59s.67.39,1,.54.69.35,1,.5l1.07.45c.35.15.73.26,1.08.4l.54.2.55.16c.37.1.73.23,1.11.32l1.12.26c.37.1.76.14,1.13.21s.76.14,1.15.17c.77.09,1.53.19,2.3.22s1.55.06,2.32,0,1.55-.09,2.33-.11,1.45-.15,2.19-.22a9,9,0,0,0,.79-.47c.32-.2.62-.44.93-.67s.6-.48.88-.75a11.27,11.27,0,0,0,.84-.81,9.25,9.25,0,0,0,.79-.87,10.24,10.24,0,0,0,.73-.92c.22-.32.47-.63.68-1l.62-1c.19-.35.36-.71.54-1.06a9.08,9.08,0,0,0,.48-1.09c.15-.37.32-.73.45-1.11l.36-1.15.18-.58.14-.59.28-1.19c.09-.4.13-.8.2-1.21l.2-1.22,0,1.23C161.55,55.39,161.58,55.81,161.54,56.22ZM185,180.06h0a.12.12,0,0,1,.16,0,.12.12,0,0,1,0,.15c-.27.4-.55.79-.85,1.17-.16.19-.33.37-.49.55a6.58,6.58,0,0,1-.56.5l-.31.22-.33.19a2.67,2.67,0,0,1-.76.26,2.08,2.08,0,0,1-.84,0l-.41-.13a3.37,3.37,0,0,1-.36-.2,4.24,4.24,0,0,1-1.11-1.13,8.23,8.23,0,0,1-.73-1.33,12.22,12.22,0,0,1-.53-1.4c-.1-.33-.19-.66-.28-1l-6-.35q-3.19-.18-6.37-.4l-.84-.91c-.06-2.56-.09-5.1-.13-7.66s-.08-5.1-.08-7.66l0-7.66.05-7.65.32-30.63.3-30.63.36-30.63a.11.11,0,0,1,.12-.11.11.11,0,0,1,.11.11l.36,30.63.3,30.63.32,30.63.05,7.65,0,7.66c0,2.55,0,5.1-.07,7.66q0,3.42-.12,6.84c1.83.2,3.67.4,5.51.61l6.35.74.52.48c.06.43.16.9.27,1.35s.25.89.4,1.33a7.36,7.36,0,0,0,.56,1.23,3.49,3.49,0,0,0,.8,1c.09.07.17.1.25.16l.27.11a1.68,1.68,0,0,0,.59.05,2.17,2.17,0,0,0,.6-.16l.3-.14L183,182a6.73,6.73,0,0,0,.55-.41c.18-.16.35-.31.52-.48C184.42,180.79,184.74,180.43,185,180.06ZM202.5,78.52c-.48.35-1,.68-1.48,1l-3,2c-.49.33-1,.67-1.45,1l-1.46.9-2.76,1.69-2.57,1.36c-.4.21-.77.42-1.14.6l-1.06.49c-.67.3-1.23.59-1.74.76l-1.14.43-.41.13a.11.11,0,0,1-.07-.21l.39-.17c.25-.11.61-.31,1.07-.54s1-.56,1.63-.91l1-.57c.35-.2.7-.45,1.08-.69l2.41-1.57,2.6-1.87,1.38-1c.46-.34.9-.71,1.37-1.07l2.76-2.2c.46-.37.93-.73,1.37-1.12l1.32-1.17c.86-.79,1.72-1.55,2.57-2.25s1.73-1.34,2.51-2l1.16-.93,1.11-.84c.7-.54,1.38-1,2-1.44s1.13-.78,1.57-1.06c.88-.58,1.41-.88,1.41-.88h0a.12.12,0,0,1,.16,0,.1.1,0,0,1,0,.12s-.35.49-1,1.3c-.33.41-.75.89-1.23,1.44s-1,1.16-1.67,1.81l-1,1-1.07,1.05c-.18.18-.36.37-.56.55l-.6.53c-.41.36-.84.7-1.27,1.06-.88.7-1.81,1.4-2.76,2.1C203.46,77.81,203,78.16,202.5,78.52ZM233.78,68l-.25.33c-.16.21-.39.53-.72.9s-.73.8-1.21,1.3-1,1-1.66,1.56-1.31,1.14-2.05,1.74-1.54,1.2-2.38,1.81-1.75,1.17-2.68,1.74L220,79.11c-1.86,1.19-3.72,2.38-5.48,3.46s-3.41,2.09-4.83,2.94c-2.83,1.71-4.75,2.82-4.75,2.82a.12.12,0,0,1-.15,0,.11.11,0,0,1,0-.15L219,77.65c.88-.66,1.76-1.33,2.62-2s1.69-1.32,2.53-1.92,1.66-1.16,2.46-1.66l1.15-.75,1.1-.67c.7-.44,1.35-.83,1.93-1.17s1.07-.65,1.5-.88c.81-.5,1.31-.78,1.31-.78h0a.11.11,0,0,1,.15,0A.13.13,0,0,1,233.78,68Z"/><rect class="cls-1" x="144.55" y="18.69" width="16.28" height="16.28"/><text class="cls-2" transform="translate(16.29 107.73) rotate(-1.3)"><tspan class="cls-3">C</tspan><tspan x="23.93" y="0">AN</tspan><tspan class="cls-4" x="78.76" y="0"> </tspan><tspan class="cls-5" x="86.66" y="0">Y</tspan><tspan x="111.23" y="0">OU BE</tspan><tspan class="cls-6" x="222.35" y="0">A</tspan><tspan class="cls-7" x="247.4" y="0">T</tspan><tspan x="52.46" y="37">NIKITIN?</tspan></text></svg>