<svg id="Layer_1" data-name="Layer 1" xmlns="http://www.w3.org/2000/svg" viewBox="0 0 288 178.67"><defs><style>.cls-1{opacity:0.9;}.cls-2{fill:#0b7bc1;}.cls-3{fill:#eb1741;}.cls-4{fill:#e4b147;}.cls-5{fill:#10aa55;}.cls-6{fill:#fff;}</style></defs><title>RIOArtboard 15</title><g class="cls-1"><path class="cls-2" d="M86.23,62.29l-21.6-10.4L59.3,28.52,74.25,9.78h24l14.95,18.74-5.33,23.37ZM69,48.43l17.26,8.31,17.26-8.31,4.26-18.68-11.95-15H76.65l-11.95,15Z"/></g><g class="cls-1"><path d="M143.9,62.29l-21.6-10.4L117,28.52,131.91,9.78h24l14.95,18.74L165.5,51.89ZM126.63,48.43l17.26,8.31,17.26-8.31,4.26-18.68-11.95-15H134.32l-11.95,15Z"/></g><g class="cls-1"><path class="cls-3" d="M201.09,62.29l-21.6-10.4-5.33-23.37L189.1,9.78h24L228,28.52l-5.34,23.37ZM183.83,48.43l17.26,8.31,17.26-8.31,4.26-18.68-11.95-15H191.51l-11.95,15Z"/></g><g class="cls-1"><path class="cls-4" d="M121.69,87.07,97.86,84.39,85.11,64.09,93,41.46l22.63-7.92L136,46.3l2.68,23.82Zm-20.87-7.38,19,2.15L133.4,68.29l-2.15-19L115,39.06,96.95,45.38,90.62,63.47Z"/></g><g class="cls-1"><path class="cls-5" d="M180.7,87.07l-23.82-2.68-12.76-20.3L152,41.46l22.63-7.92L195,46.3l2.68,23.82Zm-20.87-7.38,19,2.15,13.55-13.55-2.14-19L174,39.06,156,45.38l-6.33,18.08Z"/></g><path class="cls-6" d="M9.23,123a13.36,13.36,0,0,1,.93-5.41,12.36,12.36,0,0,1,2.77-4.19,12.65,12.65,0,0,1,4.22-2.74,14.86,14.86,0,0,1,5.24-1,15.8,15.8,0,0,1,5.44.8,12.57,12.57,0,0,1,4.32,2.4l-5,6.27a4.51,4.51,0,0,0-1.78-1.34,5.67,5.67,0,0,0-2.36-.42,5.19,5.19,0,0,0-1.95.41,4.62,4.62,0,0,0-1.57,1.1,5,5,0,0,0-1,1.72,6.11,6.11,0,0,0-.33,2.23,5.62,5.62,0,0,0,.45,2.18,5.26,5.26,0,0,0,1.12,1.64,4.61,4.61,0,0,0,1.62,1,5.07,5.07,0,0,0,1.93.32,4.85,4.85,0,0,0,2.45-.65,5.22,5.22,0,0,0,1.59-1.44l5.25,6a12.32,12.32,0,0,1-4.07,2.77A14.63,14.63,0,0,1,23,135.83a14.58,14.58,0,0,1-5.29-.83,12.52,12.52,0,0,1-7.31-6.64A13.14,13.14,0,0,1,9.23,123Z"/><path class="cls-6" d="M40.88,109.94l8.85-.2,10.22,24.55-9.06.21-1.38-3.61-7.87.18-1.14,3.67-8.81.2Zm4.5,8.54-1.89,6.17,4-.09Z"/><path class="cls-6" d="M61.14,109.48l8.29-.19,7.35,12.4h.14l-.63-12.55,7.91-.18.56,24.76-8.5.19-7.12-11.67H69l.62,11.81-7.91.18Z"/><path class="cls-6" d="M111.79,133.11l-8.33.19-.23-10.14-9.67-14.41,10-.23,4.08,7.19,3.58-7.36,9.79-.22L111.56,123Z"/><path class="cls-6" d="M120.42,120.39a13.23,13.23,0,0,1,.93-5.39,11.93,11.93,0,0,1,2.79-4.14,12.83,12.83,0,0,1,4.29-2.69,16.83,16.83,0,0,1,10.91-.25,13,13,0,0,1,4.43,2.49,11.82,11.82,0,0,1,3,4,13.27,13.27,0,0,1,1.17,5.35,13.66,13.66,0,0,1-.92,5.45,12.25,12.25,0,0,1-2.81,4.25,13,13,0,0,1-4.31,2.77,16.23,16.23,0,0,1-10.91.25,12.84,12.84,0,0,1-4.41-2.58,12.39,12.39,0,0,1-3-4.12A13.61,13.61,0,0,1,120.42,120.39Zm8.85-.2a6.55,6.55,0,0,0,.42,2.23,5.36,5.36,0,0,0,1.05,1.73,4.44,4.44,0,0,0,1.58,1.1,4.79,4.79,0,0,0,2,.36,4.62,4.62,0,0,0,3.46-1.62,5.22,5.22,0,0,0,1-1.77,6.51,6.51,0,0,0,.32-2.25,6.27,6.27,0,0,0-.42-2.18,4.7,4.7,0,0,0-1.07-1.66,4.81,4.81,0,0,0-1.58-1,4.86,4.86,0,0,0-2-.34,5,5,0,0,0-2,.43,4.57,4.57,0,0,0-1.53,1.1,4.79,4.79,0,0,0-1,1.7A6.28,6.28,0,0,0,129.27,120.19Z"/><path class="cls-6" d="M162.87,132.65a14.42,14.42,0,0,1-5.07-.69,10.11,10.11,0,0,1-3.64-2.12,8.75,8.75,0,0,1-2.21-3.26,11.82,11.82,0,0,1-.79-4.09l-.34-15,8.33-.19.32,14.13a4.12,4.12,0,0,0,.92,2.76,3.46,3.46,0,0,0,4.86-.11,4.14,4.14,0,0,0,.79-2.8l-.32-14.13,8.29-.19.34,15a11.12,11.12,0,0,1-.66,4.13,9.14,9.14,0,0,1-2.15,3.36,10.46,10.46,0,0,1-3.61,2.29A14.73,14.73,0,0,1,162.87,132.65Z"/><path class="cls-6" d="M203.49,118.15a6.64,6.64,0,0,1,1.73.64,6.18,6.18,0,0,1,1.53,1.16,5.41,5.41,0,0,1,1.52,3.73,6.29,6.29,0,0,1-2.86,5.72,9.23,9.23,0,0,1-3,1.29,17.06,17.06,0,0,1-3.54.45l-11.23.25L187,106.63l10.18-.23a24.2,24.2,0,0,1,3.21.15,10.52,10.52,0,0,1,3.15.84,6.15,6.15,0,0,1,2.42,1.94,5.77,5.77,0,0,1,1,3.42,5.23,5.23,0,0,1-.92,3.31,5.93,5.93,0,0,1-2.6,2Zm-8.55-5.23.07,3,2.24-.05a2.39,2.39,0,0,0,1.43-.43,1.43,1.43,0,0,0,.53-1.25,1.14,1.14,0,0,0-.62-1,3.09,3.09,0,0,0-1.58-.31Zm.19,8.4.08,3.36,2.48-.06a2.67,2.67,0,0,0,1.58-.47,1.47,1.47,0,0,0,.58-1.29,1.2,1.2,0,0,0-.28-.8,2,2,0,0,0-.66-.49,2.84,2.84,0,0,0-.83-.24,5.23,5.23,0,0,0-.82-.05Z"/><path class="cls-6" d="M211.26,106.08l17-.39.16,6.93-9.2.21,0,2.13,8.64-.2.15,6.47-8.64.2.05,2.31,9.79-.22.16,6.93-17.63.4Z"/><path class="cls-6" d="M239.25,105.44l8.85-.2,10.22,24.55-9.06.21-1.38-3.61-7.87.18-1.14,3.67-8.81.2Zm4.5,8.54-1.89,6.17,4-.09Z"/><path class="cls-6" d="M270.31,129.52l-8.33.19-.4-17.73-6.09.14-.16-7,20.5-.46.16,7-6.09.14Z"/><path class="cls-6" d="M63.36,146.44l8.29-.19L79,158.65h.14L78.5,146.1l7.91-.18L87,170.68l-8.5.19-7.12-11.67h-.14L71.82,171l-7.91.18Z"/><path class="cls-6" d="M91,145.82l8.39-.19.56,24.76-8.39.19Z"/><path class="cls-6" d="M112.52,160.24h-.07l.22,9.86-8.08.18L104,145.52l8-.18.21,9.13h.07l6.4-9.28,9.79-.22-9,11.54,10.06,13.21-10.21.23Z"/><path class="cls-6" d="M130.72,144.91l8.39-.19.56,24.76-8.39.19Z"/><path class="cls-6" d="M156.65,169.1l-8.33.19-.4-17.73-6.09.14-.16-7,20.5-.46.16,7-6.09.14Z"/><path class="cls-6" d="M164.72,144.14l8.39-.19.56,24.76-8.39.19Z"/><path class="cls-6" d="M177.74,143.85l8.29-.19,7.35,12.4h.14l-.63-12.55,7.91-.18.56,24.76-8.5.19-7.12-11.67h-.14l.62,11.81-7.91.18Z"/><path class="cls-6" d="M219,156.21a3,3,0,0,0-1,.9,1.64,1.64,0,0,0-.24.88l0,.91-7.49.17,0-1.29a5.82,5.82,0,0,1,.22-1.84,5.22,5.22,0,0,1,.68-1.43,6.8,6.8,0,0,1,1.06-1.2q.62-.56,1.34-1.1l.58-.43A4.08,4.08,0,0,0,215,151a1.23,1.23,0,0,0,.28-.79,1.16,1.16,0,0,0-.46-1,1.8,1.8,0,0,0-1-.27,1.76,1.76,0,0,0-1.62.86,3.64,3.64,0,0,0-.45,1.92l-7.54-.81a9.61,9.61,0,0,1,1-3.85,8.09,8.09,0,0,1,2.18-2.64,9,9,0,0,1,3-1.52,13,13,0,0,1,3.44-.53,15.24,15.24,0,0,1,3.29.29,9.42,9.42,0,0,1,3.06,1.16,7,7,0,0,1,2.28,2.22,6.55,6.55,0,0,1,.95,3.46,6.94,6.94,0,0,1-.26,2.17,6,6,0,0,1-.86,1.75,7.72,7.72,0,0,1-1.4,1.48A19.27,19.27,0,0,1,219,156.21Zm-4.71,12.15a4.31,4.31,0,0,1-1.71-.29,4.61,4.61,0,0,1-1.4-.86,3.94,3.94,0,0,1-1-1.31,4.19,4.19,0,0,1-.37-1.67,4.11,4.11,0,0,1,.29-1.65,4.16,4.16,0,0,1,.9-1.37,4.45,4.45,0,0,1,1.36-.94,4.49,4.49,0,0,1,3.39-.08,4.44,4.44,0,0,1,1.4.88,4.17,4.17,0,0,1,1,1.33,4.11,4.11,0,0,1,.37,1.64,4.19,4.19,0,0,1-.29,1.69,4,4,0,0,1-.9,1.35A4.62,4.62,0,0,1,216,168,4.33,4.33,0,0,1,214.3,168.36Z"/></svg>