<svg id="Layer_1" data-name="Layer 1" xmlns="http://www.w3.org/2000/svg" viewBox="0 0 190.59 190.59"><defs><style>.cls-1{opacity:0.9;}.cls-2{fill:#0b7bc1;}.cls-3{fill:#eb1741;}.cls-4{fill:#e4b147;}.cls-5{fill:#10aa55;}.cls-6{fill:#fff;}</style></defs><title>RIOArtboard 5</title><g class="cls-1"><path class="cls-2" d="M33.15,78.23,9.7,66.94,3.91,41.56,20.14,21.22h26L62.39,41.56,56.6,66.94ZM14,63.48l19.11,9.2,19.11-9.2L57,42.8,43.76,26.22H22.55L9.32,42.8Z"/></g><g class="cls-1"><path d="M96.29,78.23,72.85,66.94,67.06,41.56,83.28,21.22h26l16.23,20.35-5.79,25.37ZM77.19,63.48l19.11,9.2,19.11-9.2,4.72-20.68L106.9,26.22H85.69L72.47,42.8Z"/></g><g class="cls-1"><path class="cls-3" d="M158.92,78.23,135.48,66.94l-5.79-25.37,16.23-20.35h26l16.23,20.35-5.79,25.37ZM139.81,63.48l19.11,9.2L178,63.48l4.72-20.68L169.53,26.22H148.32L135.09,42.8Z"/></g><g class="cls-1"><path class="cls-4" d="M71.89,105.38,46,102.46l-13.84-22,8.59-24.56,24.56-8.6,22,13.85L90.29,87ZM49,97.76l21.08,2.37,15-15L82.68,64.07l-18-11.28-20,7-7,20Z"/></g><g class="cls-1"><path class="cls-5" d="M136.51,105.38l-25.86-2.91-13.85-22,8.6-24.56L130,47.27l22,13.85L154.91,87ZM113.6,97.76l21.08,2.37,15-15L147.3,64.07l-18-11.28-20,7-7,20Z"/></g><path class="cls-6" d="M40.17,130.89a6.32,6.32,0,0,1,1.62.6,5.78,5.78,0,0,1,1.44,1.08,5.13,5.13,0,0,1,1,1.54,5.19,5.19,0,0,1,.41,2A5.91,5.91,0,0,1,42,141.45a8.7,8.7,0,0,1-2.86,1.22,16,16,0,0,1-3.33.42l-10.54.24-.53-23.25,9.56-.22a22.71,22.71,0,0,1,3,.15,9.86,9.86,0,0,1,3,.79,5.77,5.77,0,0,1,2.28,1.82,5.42,5.42,0,0,1,1,3.21,4.91,4.91,0,0,1-.87,3.11,5.56,5.56,0,0,1-2.44,1.86Zm-8-4.91.06,2.86,2.1,0a2.25,2.25,0,0,0,1.34-.41,1.33,1.33,0,0,0,.5-1.18,1.07,1.07,0,0,0-.58-1,2.9,2.9,0,0,0-1.48-.3Zm.18,7.88.07,3.15,2.33-.05a2.51,2.51,0,0,0,1.48-.44,1.38,1.38,0,0,0,.55-1.21,1.14,1.14,0,0,0-.26-.75,1.86,1.86,0,0,0-.62-.46,2.67,2.67,0,0,0-.78-.23,4.84,4.84,0,0,0-.77,0Z"/><path class="cls-6" d="M46.68,131.07a12.42,12.42,0,0,1,.87-5.06,11.22,11.22,0,0,1,2.62-3.89,12.05,12.05,0,0,1,4-2.52,15.79,15.79,0,0,1,10.25-.23,12.22,12.22,0,0,1,4.16,2.34,11.12,11.12,0,0,1,2.81,3.76,12.47,12.47,0,0,1,1.1,5,12.79,12.79,0,0,1-.87,5.11,11.49,11.49,0,0,1-2.64,4,12.26,12.26,0,0,1-4,2.61,15.27,15.27,0,0,1-10.25.23A12.09,12.09,0,0,1,50.58,140a11.6,11.6,0,0,1-2.8-3.86A12.77,12.77,0,0,1,46.68,131.07Zm8.31-.19a6.12,6.12,0,0,0,.39,2.09,5,5,0,0,0,1,1.62,4.18,4.18,0,0,0,1.48,1,4.5,4.5,0,0,0,1.85.34A4.34,4.34,0,0,0,63,134.45a4.91,4.91,0,0,0,.93-1.66,6.15,6.15,0,0,0,.3-2.11,6,6,0,0,0-.39-2,4.41,4.41,0,0,0-1-1.55,4.51,4.51,0,0,0-3.31-1.29,4.67,4.67,0,0,0-1.83.4,4.3,4.3,0,0,0-1.44,1,4.5,4.5,0,0,0-.92,1.6A5.87,5.87,0,0,0,55,130.89Z"/><path class="cls-6" d="M85.48,135.16,81.59,142l-9.26.21,8-12.31-8.13-11,9.42-.21,3.82,6,3.38-6.19,9.2-.21-7.5,11.21,8.85,12-9.56.22Z"/><path class="cls-6" d="M107.67,129.69a12.42,12.42,0,0,1,.87-5.06,11.22,11.22,0,0,1,2.62-3.89,12.06,12.06,0,0,1,4-2.52,15.79,15.79,0,0,1,10.25-.23,12.23,12.23,0,0,1,4.16,2.34,11.12,11.12,0,0,1,2.81,3.76,12.47,12.47,0,0,1,1.1,5,12.79,12.79,0,0,1-.87,5.11,11.49,11.49,0,0,1-2.64,4,12.25,12.25,0,0,1-4,2.61,15.27,15.27,0,0,1-10.25.23,12.09,12.09,0,0,1-4.15-2.42,11.6,11.6,0,0,1-2.8-3.86A12.77,12.77,0,0,1,107.67,129.69Zm8.31-.19a6.12,6.12,0,0,0,.39,2.09,5.05,5.05,0,0,0,1,1.62,4.18,4.18,0,0,0,1.48,1,4.5,4.5,0,0,0,1.85.34,4.35,4.35,0,0,0,3.25-1.52,4.91,4.91,0,0,0,.93-1.66,6.15,6.15,0,0,0,.3-2.11,6,6,0,0,0-.39-2,4.41,4.41,0,0,0-1-1.55,4.51,4.51,0,0,0-3.31-1.29,4.67,4.67,0,0,0-1.83.4,4.3,4.3,0,0,0-1.44,1,4.5,4.5,0,0,0-.92,1.6A5.87,5.87,0,0,0,116,129.5Z"/><path class="cls-6" d="M144.39,126.33l7.09-.16.15,6.4-7.06.16.18,7.88-7.69.17-.53-23.25,15.7-.36.15,6.54-8,.18Z"/><path class="cls-6" d="M163.48,125.9l7.09-.16.15,6.4-7.06.16.18,7.88-7.69.17-.53-23.25,15.7-.36.15,6.54-8,.18Z"/><path class="cls-6" d="M63.86,160.77a4.19,4.19,0,0,0,.9-1,1.89,1.89,0,0,0,.34-1.09,1.74,1.74,0,0,0-.44-1.14,1.6,1.6,0,0,0-1.31-.46,2,2,0,0,0-1.56.79,3.39,3.39,0,0,0-.64,2.05l-7.47-.69a9.64,9.64,0,0,1,1.09-3.94,9.1,9.1,0,0,1,2.32-2.78,9.7,9.7,0,0,1,3.15-1.67,13,13,0,0,1,3.62-.59,13.86,13.86,0,0,1,3.41.35,9.27,9.27,0,0,1,3,1.26,7,7,0,0,1,2.19,2.3,7,7,0,0,1,.9,3.46,7.84,7.84,0,0,1-.32,2.55,7,7,0,0,1-1,2,9.66,9.66,0,0,1-1.41,1.58q-.79.71-1.66,1.35l-3.36,2.51,8-.18.15,6.54L55,174.42l-.14-6.08Z"/><path class="cls-6" d="M87.3,174.34a11.43,11.43,0,0,1-3.76-.47,8.79,8.79,0,0,1-2.79-1.45,9,9,0,0,1-2-2.16,11.81,11.81,0,0,1-1.27-2.6,15.46,15.46,0,0,1-.69-2.78,20.35,20.35,0,0,1-.12-5.42,14.67,14.67,0,0,1,.56-2.77,11.36,11.36,0,0,1,1.16-2.59,8.68,8.68,0,0,1,1.87-2.18A9,9,0,0,1,83,150.4a11.74,11.74,0,0,1,3.73-.63,10.49,10.49,0,0,1,5.28,1,9,9,0,0,1,3.25,2.88,11.29,11.29,0,0,1,1.67,3.91,21.11,21.11,0,0,1,.52,4.08,21.64,21.64,0,0,1-.12,2.71,15.53,15.53,0,0,1-.56,2.82,12.26,12.26,0,0,1-1.14,2.66,8.57,8.57,0,0,1-1.87,2.24A9,9,0,0,1,91,173.7,11.42,11.42,0,0,1,87.3,174.34Zm-.4-17.83a1.54,1.54,0,0,0-1.17.52,3.43,3.43,0,0,0-.69,1.3,8.17,8.17,0,0,0-.32,1.77,18.8,18.8,0,0,0-.06,1.89q0,1,.14,2a8.86,8.86,0,0,0,.4,1.81,3.59,3.59,0,0,0,.75,1.31,1.52,1.52,0,0,0,1.19.48,1.57,1.57,0,0,0,1.19-.54,3.29,3.29,0,0,0,.69-1.35,9.51,9.51,0,0,0,.3-1.83q.08-1,.05-2a18.65,18.65,0,0,0-.14-1.89,8.93,8.93,0,0,0-.38-1.75,3.14,3.14,0,0,0-.75-1.26A1.6,1.6,0,0,0,86.9,156.51Z"/><path class="cls-6" d="M107.9,158.23,104.06,161l-3.81-5.63,8.13-5.44,7.23-.16.53,23.25-7.88.18Z"/><path class="cls-6" d="M135.14,156.63a8.71,8.71,0,0,1,3,.44,7.74,7.74,0,0,1,2.58,1.44,7.32,7.32,0,0,1,1.84,2.39,7.78,7.78,0,0,1,.75,3.3,8.59,8.59,0,0,1-.73,3.88,8,8,0,0,1-2.17,2.83,9.77,9.77,0,0,1-3.21,1.75,13.29,13.29,0,0,1-3.86.65,13.65,13.65,0,0,1-3.89-.45,9.88,9.88,0,0,1-3.29-1.55,7.73,7.73,0,0,1-2.3-2.69,8.66,8.66,0,0,1-.91-3.87,9.89,9.89,0,0,1,.78-4.14,20.88,20.88,0,0,1,1.94-3.58l5.15-7.58,9.49-.22-5.2,7.05-.29.37Zm-2.11,5.5a2.32,2.32,0,0,0-1.71.72,2.27,2.27,0,0,0-.64,1.68,2.38,2.38,0,0,0,.71,1.71,2.3,2.3,0,0,0,1.74.66,2.34,2.34,0,0,0,2.41-2.47,2.27,2.27,0,0,0-.71-1.65A2.41,2.41,0,0,0,133,162.13Z"/></svg>