<svg id="Layer_1" data-name="Layer 1" xmlns="http://www.w3.org/2000/svg" viewBox="0 0 268.969 230.506"><defs><style>.cls-1{fill:#0b7bc1;}.cls-2{isolation:isolate;}.cls-3{fill:#fff;}</style></defs><title>logo</title><path class="cls-1" d="M185.13,238.66l2.76-3.88-3-86.35,16.61-3.87,32.66-2.21,14.95-23s34,.28,35.43-8.3c0,0-1.11-6.36-17.72-3,0,0,16.61-4.71-4.42-2.49,0,0-11.35,1.39-14.12,4.15,0,0-35.15,5.26-58.95-3.6a37.94,37.94,0,0,0-24.91-4.15s6.36-41-11.07-40.13c0,0-14.95-7.75-16.05,38.2a123.82,123.82,0,0,0-45.66,6.09s-28.29,4.68-44.89,1.36c0,0-3.88-4.71-17.71-4.15,0,0-6.27,1.48,7.19,3,0,0-27.4-1.11-19.09,4.71,0,0,8,8.3,34,6.64l13.6,22.18,29.06,1.38,19.37,7.19-2.49,45.39h5.54s-3.6,6.36,1.94,8.58v25.74M161.08,73.72s-3.83,2.15-6.33-.64C154.74,73.08,156.77,71.48,161.08,73.72Zm-7.57,9.56h2.09a.47.47,0,0,0,.15,0,.1.1,0,0,1,.14,0l.27.24c.16.14.31.28.43.4a3.725,3.725,0,0,0,.3.29l.1.11-.09.12a3.23,3.23,0,0,1-.25.33,5.372,5.372,0,0,1-.42.45l-.26.26a.13.13,0,0,1-.15,0,.5.5,0,0,0-.16,0h-3.08c-.56-.05-1.12-.06-1.65-.15s-1-.12-1.44-.21a.7.7,0,0,0-.16,0,.11.11,0,0,1-.14-.06l-.22-.3c-.14-.18-.25-.36-.34-.5s-.16-.28-.2-.35l-.07-.13.13-.09.33-.24c.14-.09.31-.22.5-.33l.29-.19a.09.09,0,0,1,.127,0l0,0a.51.51,0,0,0,.14,0c.38.08.83.12,1.31.19s1,.09,1.52.14C153,83.27,153.25,83.27,153.51,83.28Zm-1.87-10s.14,1.25-6.36,0c0,.04,3.59-3.61,6.36.04ZM93.46,136a.11.11,0,0,1-.11.06,9.9,9.9,0,0,1-1.61-.19l-.85-.13c-.31-.06-.63-.16-1-.25s-.72-.21-1.11-.32a9,9,0,0,1-1.21-.41c-.82-.33-1.73-.66-2.63-1.11-.46-.22-.92-.46-1.39-.7s-.95-.51-1.42-.8c-.92-.6-1.89-1.2-2.8-1.91s-1.87-1.36-2.78-2.09l-1.35-1.02L73.85,126c-.9-.71-1.75-1.45-2.58-2.15s-1.61-1.4-2.36-2.06l-2.06-1.91c-2.53-2.38-4.12-4.07-4.12-4.07a.11.11,0,0,1,0-.155l0,0a.12.12,0,0,1,.15,0l1.22,1c.78.64,1.9,1.55,3.26,2.62L69.57,121c.8.59,1.61,1.23,2.49,1.87s1.76,1.3,2.7,1.94l1.4,1,1.43.95c1,.64,1.93,1.23,2.9,1.8s1.94,1.1,2.85,1.66,1.8,1.05,2.63,1.59c.41.27.83.48,1.23.71l1.14.68c.73.45,1.43.77,2,1.12.31.17.59.34.86.47l.75.35c.91.44,1.43.73,1.43.73h0A.12.12,0,0,1,93.46,136Zm11.48-3.18a.11.11,0,0,1-.1,0,7.089,7.089,0,0,1-1.43-.21,10.29,10.29,0,0,1-1.6-.43c-.31-.09-.63-.21-1-.33a7.018,7.018,0,0,1-1-.44L98.7,131c-.38-.19-.75-.41-1.14-.61s-.79-.44-1.19-.67-.79-.52-1.19-.79c-.8-.54-1.59-1.16-2.37-1.8s-1.57-1.3-2.36-2-1.56-1.32-2.33-2-1.49-1.32-2.21-2-1.39-1.26-2-1.87l-1.81-1.59c-2.2-2.12-3.59-3.61-3.59-3.61a.11.11,0,0,1,0-.155l0,0a.1.1,0,0,1,.141-.009l.009.009s1.57,1.29,4,3.18c1.2.94,2.61,2,4.12,3.18l2.3,1.74c.8.58,1.61,1.2,2.44,1.77s1.66,1.16,2.5,1.68L96.47,127c.38.27.77.52,1.13.79s.73.5,1.09.75c.69.51,1.36,1,2,1.38.31.21.6.43.88.62s.56.35.81.52c.51.33.95.66,1.34.86.76.44,1.2.74,1.2.74h0a.12.12,0,0,1,.02.2Zm9.5,4.45a10.957,10.957,0,0,1-.05,1.29,21.059,21.059,0,0,1-.16,2.27,22,22,0,0,1-.32,2.22,22,22,0,0,1-.32-2.22c-.07-.66-.13-1.44-.17-2.27v-5.21a21.287,21.287,0,0,1,.17-2.28,22,22,0,0,1,.32-2.22,22,22,0,0,1,.32,2.22c.07.66.13,1.44.17,2.28v2.6c0,.44.05.92.05,1.36Zm3.18-7.39c-1.09-.49-2.13-1.05-3.17-1.59s-2-1.14-3-1.72-2-1.19-2.88-1.81c-1.88-1.21-3.62-2.5-5.24-3.75s-3.1-2.5-4.42-3.7S96.37,115,95.35,114s-1.86-2-2.54-2.75-1.19-1.42-1.54-1.85l-.52-.67.61.59c.4.39,1,.93,1.76,1.62s1.71,1.51,2.8,2.44,2.36,1.93,3.75,3,2.94,2.18,4.58,3.34c.83.56,1.68,1.15,2.57,1.71l1.35.86,1.39.85c.92.59,1.9,1.11,2.87,1.68l1.5.8c.5.27,1,.55,1.51.8,1,.52,2,1.05,3.11,1.52.53.24,1,.49,1.58.72l1.61.67c1.06.47,2.16.86,3.23,1.28s2.19.74,3.27,1.12l3.26.95c1.09.26,2.16.56,3.22.79s2.12.43,3.15.62,2,.33,3,.47l2.9.31c.94.08,1.85.12,2.72.18s1.72.05,2.52.07,1.56,0,2.28,0c1.42-.08,2.67-.07,3.7-.16,2.05-.18,3.24-.26,3.24-.26s-1.15.27-3.18.69c-1,.21-2.27.36-3.7.57-.72.1-1.49.13-2.3.21a23.319,23.319,0,0,1-2.56.13c-.89-.01-1.83,0-2.79,0l-3-.14c-1-.09-2.07-.21-3.15-.31s-2.16-.34-3.26-.51-2.21-.47-3.35-.7-2.25-.59-3.38-.91-2.26-.71-3.38-1.12-2.25-.8-3.35-1.29l-1.65-.71c-.48-.17-1.02-.44-1.55-.69Zm.53,58.19v-2c0-1.26.13-3.15.29-5.36.07-1.11.16-2.31.28-3.57s.22-2.6.37-4,.28-2.81.47-4.24.36-2.91.54-4.38l.62-4.36c.2-1.44.45-2.85.66-4.22s.45-2.69.67-3.94.45-2.43.66-3.52c.42-2.18.82-4,1.11-5.26s.48-2,.48-2v2c0,1.26-.13,3.15-.29,5.36-.08,1.11-.16,2.31-.28,3.57s-.22,2.6-.38,4-.28,2.8-.47,4.24l-.54,4.38-.61,4.36c-.19,1.44-.45,2.85-.66,4.22s-.45,2.69-.67,3.94-.44,2.43-.66,3.52c-.42,2.18-.82,4-1.11,5.25s-.48,2.05-.48,2.05Zm12.88-14c0,2-.07,3.93-.09,5.81s-.09,3.7-.15,5.43-.13,3.36-.19,4.87c-.13,3-.29,5.53-.42,7.29v.25a3.241,3.241,0,0,1,.17.32,2.7,2.7,0,0,1,.13,1.71,3.36,3.36,0,0,1-.7,1.33,6.59,6.59,0,0,1-1.83,1.48,15.22,15.22,0,0,1-3.48,1.42c-.52.14-1,.25-1.43.34s-.81.15-1.12.2c-.63.09-1,.11-1,.11s.3-.21.84-.53,1.3-.77,2.19-1.3a32.938,32.938,0,0,0,2.9-1.88,6.1,6.1,0,0,0,1.22-1.17,1.49,1.49,0,0,0,.25-.51.49.49,0,0,0,0-.35,3,3,0,0,0-1-1,14.111,14.111,0,0,0-1.59-.93c-1.12-.56-2.23-1-3.2-1.43l-2.35-1-.9-.4h1a20.26,20.26,0,0,1,2.6.19,18.42,18.42,0,0,1,3.62.86,10.47,10.47,0,0,1,2,.94,5.93,5.93,0,0,1,1.24,1c-.12-1.74-.27-4.1-.39-6.91-.07-1.51-.14-3.14-.19-4.87S129,181.85,129,180s-.09-3.83-.09-5.81v-12c0-2,.07-3.92.09-5.81s.1-3.71.15-5.43.12-3.36.19-4.87c.13-3,.29-5.53.41-7.29.06-.88.13-1.57.16-2s.09-.79.09-.79a6.6,6.6,0,0,0,.06.73c.06.48.11,1.16.16,2,.12,1.76.29,4.27.42,7.29.07,1.51.14,3.14.19,4.87s.12,3.55.15,5.43.09,3.83.09,5.81v6c0,2-.07,4.05-.07,6.02ZM160.89,238c-.2-.16-.46-.36-.74-.6l-.93-.9c-.36-.33-.7-.74-1.09-1.18l-.6-.69-.6-.77c-.42-.53-.86-1.1-1.29-1.73s-.9-1.27-1.34-2-.92-1.42-1.37-2.19-.92-1.57-1.38-2.41c-.93-1.66-1.86-3.44-2.77-5.3s-1.83-3.8-2.69-5.79-1.73-4-2.56-6.07-1.6-4.11-2.36-6.15-1.46-4.05-2.13-6-1.29-3.85-1.87-5.66-1.1-3.51-1.57-5.1c-.94-3.17-1.66-5.83-2.15-7.7s-.73-2.94-.73-2.94l3.77,10.34c1.14,3.1,2.46,6.71,3.91,10.56.72,1.93,1.49,3.91,2.26,5.93s1.58,4.06,2.4,6.1,1.65,4.07,2.49,6.05,1.68,3.94,2.55,5.8c.42.93.85,1.85,1.28,2.74s.83,1.77,1.26,2.6l.62,1.25.63,1.19c.4.79.81,1.54,1.22,2.25s.8,1.39,1.18,2,.76,1.24,1.14,1.79l.53.81.53.73a15.227,15.227,0,0,0,1,1.26l.82,1c.25.28.48.49.66.68l.56.56Zm.12-33.53-.62-.31-.79-.5c-.3-.18-.6-.41-.94-.66s-.7-.53-1.06-.85a30,30,0,0,1-2.37-2.24c-.83-.86-1.7-1.82-2.57-2.88s-1.77-2.18-2.63-3.39c-.45-.6-.88-1.22-1.32-1.85s-.87-1.27-1.3-1.92c-.86-1.3-1.71-2.64-2.54-4s-1.61-2.73-2.38-4.08-1.49-2.71-2.18-4-1.33-2.59-1.93-3.81-1.15-2.38-1.65-3.46c-2-4.31-3.08-7.28-3.08-7.28s1.59,2.74,3.92,6.85l4,7,2.29,3.92c.78,1.34,1.58,2.68,2.41,4s1.63,2.68,2.46,4,1.64,2.59,2.47,3.8c.4.61.82,1.2,1.22,1.78s.8,1.15,1.2,1.69c.79,1.09,1.56,2.1,2.3,3s1.44,1.72,2.1,2.41c.32.36.64.66.94.95a11.153,11.153,0,0,0,.83.77l.7.6.55.4.46.33Zm.53-95.23-.1,1.24-.05.62a3.121,3.121,0,0,1-.11.61l-.22,1.24c-.09.41-.22.81-.32,1.22a10.931,10.931,0,0,1-.4,1.2c-.16.39-.3.79-.47,1.18l-.56,1.15c-.18.39-.43.74-.64,1.11a11.219,11.219,0,0,1-.72,1.06,12.16,12.16,0,0,1-.79,1c-.27.34-.57.65-.87,1a12.65,12.65,0,0,1-.94.9c-.34.28-.67.56-1,.81a9.881,9.881,0,0,1-1.17.74l-.28.09c-.81.12-1.62.26-2.44.36l-1.23.1c-.41,0-.82.06-1.24.06h-2.48a21.084,21.084,0,0,1-2.49-.21,7.5,7.5,0,0,1-1.23-.2c-.41-.07-.82-.13-1.23-.24l-1.21-.3c-.41-.1-.8-.24-1.2-.36l-.6-.19-.59-.22c-.39-.15-.78-.29-1.16-.47l-1.13-.53c-.37-.19-.73-.4-1.1-.59s-.72-.42-1.07-.64a9.7,9.7,0,0,1-1-.68c-.69-.47-1.33-1-2-1.52l-.93-.82-.89-.86-.85-.9-.8-.94c-.52-.64-1-1.29-1.48-2s-.89-1.37-1.3-2.07-.76-1.44-1.1-2.17a19.81,19.81,0,0,1-.86-2.26c.37.72.81,1.39,1.23,2.06s.9,1.32,1.38,2,1,1.24,1.5,1.84l.79.88.82.85.85.81.87.78.9.75.93.71c.63.45,1.27.89,1.93,1.29.33.21.66.4,1,.59s.67.39,1,.54.69.35,1,.5l1.07.45c.35.15.73.26,1.08.4l.54.2.55.16c.37.1.73.23,1.11.32l1.12.26c.37.1.76.14,1.13.21a10.608,10.608,0,0,0,1.15.17c.77.09,1.53.19,2.3.22a19.953,19.953,0,0,0,2.32,0c.77-.06,1.55-.09,2.33-.11s1.45-.15,2.19-.22a9,9,0,0,0,.79-.47c.32-.2.62-.44.93-.67a8.939,8.939,0,0,0,.88-.75,11.27,11.27,0,0,0,.84-.81,9.25,9.25,0,0,0,.79-.87,10.24,10.24,0,0,0,.73-.92c.22-.32.47-.63.68-1l.62-1c.19-.35.36-.71.54-1.06a9.079,9.079,0,0,0,.48-1.09c.15-.37.32-.73.45-1.11l.36-1.15.18-.58.14-.59.28-1.19c.09-.4.13-.8.2-1.21l.2-1.22v1.23a4.489,4.489,0,0,1,.07,1.26ZM185,233.06h0a.11.11,0,1,1,.16.15c-.27.4-.55.79-.85,1.17-.16.19-.33.37-.49.55a6.58,6.58,0,0,1-.56.5l-.31.22-.33.19a2.67,2.67,0,0,1-.76.26,2.08,2.08,0,0,1-.84,0l-.41-.13a3.37,3.37,0,0,1-.36-.2,4.24,4.24,0,0,1-1.11-1.13,8.229,8.229,0,0,1-.73-1.33,12.221,12.221,0,0,1-.53-1.4c-.1-.33-.19-.66-.28-1l-6-.35q-3.19-.18-6.37-.4l-.84-.91c-.06-2.56-.09-5.1-.13-7.66s-.08-5.1-.08-7.66v-7.66l.05-7.65.32-30.63.3-30.63.36-30.63a.11.11,0,0,1,.11-.11h.01a.11.11,0,0,1,.11.11h0l.36,30.63.3,30.63.32,30.63.05,7.65v7.66c0,2.55,0,5.1-.07,7.66q0,3.42-.12,6.84,2.745.3,5.51.61l6.35.74.52.48c.06.43.16.9.27,1.35s.25.89.4,1.33a7.359,7.359,0,0,0,.56,1.23,3.49,3.49,0,0,0,.8,1c.09.07.17.1.25.16l.27.11a1.68,1.68,0,0,0,.59.05,2.17,2.17,0,0,0,.6-.16l.3-.14.3-.19a6.727,6.727,0,0,0,.55-.41c.18-.16.35-.31.52-.48A6.542,6.542,0,0,0,185,233.06Zm17.5-101.54c-.48.35-1,.68-1.48,1l-3,2c-.49.33-1,.67-1.45,1l-1.46.9-2.76,1.69-2.57,1.36c-.4.21-.77.42-1.14.6l-1.06.49c-.67.3-1.23.59-1.74.76l-1.14.43-.41.13a.111.111,0,0,1-.07-.21l.39-.17c.25-.11.61-.31,1.07-.54s1-.56,1.63-.91l1-.57c.35-.2.7-.45,1.08-.69l2.41-1.57,2.6-1.87,1.38-1c.46-.34.9-.71,1.37-1.07l2.76-2.2c.46-.37.93-.73,1.37-1.12l1.32-1.17c.86-.79,1.72-1.55,2.57-2.25s1.73-1.34,2.51-2l1.16-.93,1.11-.84c.7-.54,1.38-1,2-1.44s1.13-.78,1.57-1.06c.88-.58,1.41-.88,1.41-.88h0a.12.12,0,0,1,.16,0,.1.1,0,0,1,0,.12s-.35.49-1,1.3c-.33.41-.75.89-1.23,1.44s-1,1.16-1.67,1.81l-1,1-1.07,1.05c-.18.18-.36.37-.56.55l-.6.53c-.41.36-.84.7-1.27,1.06-.88.7-1.81,1.4-2.76,2.1A11.822,11.822,0,0,1,202.5,131.52ZM233.78,121l-.25.33c-.16.21-.39.53-.72.9s-.73.8-1.21,1.3a21.692,21.692,0,0,1-1.66,1.56c-.66.56-1.31,1.14-2.05,1.74s-1.54,1.2-2.38,1.81-1.75,1.17-2.68,1.74L220,132.11c-1.86,1.19-3.72,2.38-5.48,3.46s-3.41,2.09-4.83,2.94c-2.83,1.71-4.75,2.82-4.75,2.82a.12.12,0,0,1-.15,0,.11.11,0,0,1,0-.15L219,130.65c.88-.66,1.76-1.33,2.62-2s1.69-1.32,2.53-1.92,1.66-1.16,2.46-1.66l1.15-.75,1.1-.67c.7-.44,1.35-.83,1.93-1.17s1.07-.65,1.5-.88c.81-.5,1.31-.78,1.31-.78h0a.11.11,0,0,1,.15,0A.13.13,0,0,1,233.78,121Z" transform="translate(-15.571 -8.154)"/><rect class="cls-1" x="128.979" y="63.536" width="16.28" height="16.28"/><g class="cls-2"><path class="cls-3" d="M17.2,148.319a13.378,13.378,0,0,1,.927-5.41,12.362,12.362,0,0,1,2.775-4.192,12.689,12.689,0,0,1,4.226-2.738,14.854,14.854,0,0,1,5.243-1.047,15.814,15.814,0,0,1,5.443.8,12.6,12.6,0,0,1,4.324,2.4l-4.968,6.272a4.515,4.515,0,0,0-1.78-1.342,5.669,5.669,0,0,0-2.354-.419,5.171,5.171,0,0,0-1.951.412,4.617,4.617,0,0,0-1.568,1.1,4.95,4.95,0,0,0-1.028,1.721,6.111,6.111,0,0,0-.334,2.229,5.63,5.63,0,0,0,.452,2.179,5.252,5.252,0,0,0,1.122,1.635,4.588,4.588,0,0,0,1.616,1.031,5.094,5.094,0,0,0,1.933.324,4.837,4.837,0,0,0,2.452-.652,5.205,5.205,0,0,0,1.595-1.434l5.247,6a12.3,12.3,0,0,1-4.067,2.77,14.613,14.613,0,0,1-5.539,1.125,14.593,14.593,0,0,1-5.286-.826,12.52,12.52,0,0,1-7.309-6.641A13.174,13.174,0,0,1,17.2,148.319Z" transform="translate(-15.571 -8.154)"/></g><g class="cls-2"><path class="cls-3" d="M48.852,135.212l8.85-.2,10.217,24.547-9.06.205-1.377-3.607-7.87.178L48.469,160l-8.815.2Zm4.5,8.541-1.89,6.169,4.022-.091Z" transform="translate(-15.571 -8.154)"/><path class="cls-3" d="M69.105,134.752l8.291-.187,7.351,12.4.14,0-.635-12.549,7.906-.179L92.72,159l-8.5.192L77.1,147.521l-.14,0,.618,11.816-7.906.179Z" transform="translate(-15.571 -8.154)"/></g><g class="cls-2"><path class="cls-3" d="M119.753,158.382l-8.326.188-.23-10.145-9.672-14.409,10.04-.228,4.083,7.187,3.578-7.36,9.794-.223-9.5,14.845Z" transform="translate(-15.571 -8.154)"/></g><g class="cls-2"><path class="cls-3" d="M128.4,145.657a13.259,13.259,0,0,1,.928-5.394,11.918,11.918,0,0,1,2.793-4.141,12.806,12.806,0,0,1,4.3-2.687,16.827,16.827,0,0,1,10.914-.247,13.021,13.021,0,0,1,4.431,2.488,11.844,11.844,0,0,1,3,4.01,13.261,13.261,0,0,1,1.17,5.346,13.623,13.623,0,0,1-.926,5.446,12.236,12.236,0,0,1-2.809,4.245,13.023,13.023,0,0,1-4.311,2.775,16.22,16.22,0,0,1-10.914.247,12.83,12.83,0,0,1-4.417-2.576,12.369,12.369,0,0,1-2.981-4.114A13.632,13.632,0,0,1,128.4,145.657Zm8.85-.2a6.536,6.536,0,0,0,.418,2.23,5.377,5.377,0,0,0,1.054,1.726,4.435,4.435,0,0,0,1.583,1.1,4.784,4.784,0,0,0,1.968.358,4.617,4.617,0,0,0,3.463-1.619,5.208,5.208,0,0,0,.992-1.772,6.529,6.529,0,0,0,.316-2.246,6.292,6.292,0,0,0-.417-2.179,4.683,4.683,0,0,0-1.07-1.655,4.806,4.806,0,0,0-3.531-1.372,4.962,4.962,0,0,0-1.95.429,4.562,4.562,0,0,0-1.533,1.1,4.808,4.808,0,0,0-.976,1.7A6.261,6.261,0,0,0,137.247,145.456Z" transform="translate(-15.571 -8.154)"/><path class="cls-3" d="M170.849,157.923a14.416,14.416,0,0,1-5.073-.69,10.146,10.146,0,0,1-3.636-2.123,8.772,8.772,0,0,1-2.209-3.257,11.838,11.838,0,0,1-.792-4.094l-.342-15.041,8.325-.188.321,14.132a4.127,4.127,0,0,0,.92,2.761,3.465,3.465,0,0,0,4.862-.11,4.134,4.134,0,0,0,.794-2.8l-.32-14.132,8.29-.188.342,15.041a11.1,11.1,0,0,1-.659,4.127,9.128,9.128,0,0,1-2.146,3.355A10.453,10.453,0,0,1,175.92,157,14.716,14.716,0,0,1,170.849,157.923Z" transform="translate(-15.571 -8.154)"/><path class="cls-3" d="M211.468,143.422a6.675,6.675,0,0,1,1.729.642,6.133,6.133,0,0,1,1.531,1.156,5.42,5.42,0,0,1,1.087,1.637,5.524,5.524,0,0,1,.434,2.09,6.293,6.293,0,0,1-2.863,5.718,9.268,9.268,0,0,1-3.051,1.293,17.038,17.038,0,0,1-3.542.448l-11.229.255L195,131.9l10.179-.231a24.212,24.212,0,0,1,3.207.154,10.544,10.544,0,0,1,3.151.838,6.161,6.161,0,0,1,2.424,1.94,5.77,5.77,0,0,1,1.022,3.425,5.241,5.241,0,0,1-.922,3.311,5.933,5.933,0,0,1-2.6,1.984Zm-8.553-5.232.068,3.043,2.238-.051a2.393,2.393,0,0,0,1.426-.435,1.426,1.426,0,0,0,.531-1.254,1.143,1.143,0,0,0-.618-1.036,3.088,3.088,0,0,0-1.582-.313Zm.19,8.4.076,3.358,2.483-.056a2.675,2.675,0,0,0,1.581-.474,1.472,1.472,0,0,0,.583-1.291,1.21,1.21,0,0,0-.28-.8,1.985,1.985,0,0,0-.658-.492,2.846,2.846,0,0,0-.828-.244,5.223,5.223,0,0,0-.824-.052Z" transform="translate(-15.571 -8.154)"/><path class="cls-3" d="M219.244,131.346l17.035-.387.157,6.926-9.2.208.049,2.133,8.64-.2.147,6.473-8.641.2.053,2.309,9.795-.222.157,6.925-17.631.4Z" transform="translate(-15.571 -8.154)"/></g><g class="cls-2"><path class="cls-3" d="M247.221,130.711l8.85-.2,10.217,24.547-9.06.205-1.377-3.607-7.87.178-1.143,3.666-8.815.2Zm4.5,8.541-1.891,6.169,4.022-.091Z" transform="translate(-15.571 -8.154)"/></g><g class="cls-2"><path class="cls-3" d="M278.283,154.784l-8.325.189-.4-17.735-6.087.138-.159-7.03,20.5-.465.159,7.03-6.087.138Z" transform="translate(-15.571 -8.154)"/></g><g class="cls-2"><path class="cls-3" d="M71.323,171.712l8.291-.188,7.351,12.4.14,0-.635-12.549,7.906-.18.562,24.766-8.5.193-7.125-11.668-.14,0,.618,11.814-7.906.18Z" transform="translate(-15.571 -8.154)"/><path class="cls-3" d="M98.993,171.084l8.4-.19.562,24.766-8.4.19Z" transform="translate(-15.571 -8.154)"/><path class="cls-3" d="M120.494,185.5l-.07,0,.224,9.864-8.081.184L112,170.789l8.045-.183.207,9.129.07,0,6.4-9.278,9.795-.223-9.048,11.544,10.064,13.211-10.214.232Z" transform="translate(-15.571 -8.154)"/><path class="cls-3" d="M138.7,170.184l8.4-.191.562,24.766-8.4.191Z" transform="translate(-15.571 -8.154)"/><path class="cls-3" d="M164.617,194.373l-8.325.189-.4-17.735-6.086.138-.16-7.03,20.5-.465.159,7.03-6.087.138Z" transform="translate(-15.571 -8.154)"/><path class="cls-3" d="M172.7,169.411l8.395-.19.563,24.766-8.4.19Z" transform="translate(-15.571 -8.154)"/><path class="cls-3" d="M185.709,169.116l8.29-.188,7.352,12.4.14,0-.635-12.549,7.905-.18.563,24.766-8.5.193L193.7,181.884l-.14,0,.618,11.815-7.906.18Z" transform="translate(-15.571 -8.154)"/><path class="cls-3" d="M226.991,181.479a3.038,3.038,0,0,0-.964.9,1.636,1.636,0,0,0-.24.88l.021.91-7.485.17-.029-1.295a5.836,5.836,0,0,1,.221-1.844,5.256,5.256,0,0,1,.685-1.432,6.771,6.771,0,0,1,1.059-1.2q.617-.557,1.34-1.1l.585-.434a4.046,4.046,0,0,0,.84-.771,1.229,1.229,0,0,0,.279-.795,1.162,1.162,0,0,0-.46-1.022,1.8,1.8,0,0,0-1.039-.273,1.761,1.761,0,0,0-1.626.86,3.648,3.648,0,0,0-.446,1.917l-7.543-.809a9.6,9.6,0,0,1,1.015-3.855,8.077,8.077,0,0,1,2.18-2.64,9.007,9.007,0,0,1,2.977-1.52,13.052,13.052,0,0,1,3.435-.533,15.244,15.244,0,0,1,3.288.293,9.428,9.428,0,0,1,3.059,1.156,6.94,6.94,0,0,1,2.28,2.223,6.533,6.533,0,0,1,.95,3.461,6.947,6.947,0,0,1-.262,2.176,6.071,6.071,0,0,1-.859,1.752,7.693,7.693,0,0,1-1.4,1.484A19.339,19.339,0,0,1,226.991,181.479Zm-4.714,12.146a4.307,4.307,0,0,1-1.7-.294,4.591,4.591,0,0,1-1.4-.861,3.957,3.957,0,0,1-.958-1.307,4.225,4.225,0,0,1-.37-1.673,4.1,4.1,0,0,1,.295-1.65,4.172,4.172,0,0,1,.9-1.369,4.453,4.453,0,0,1,1.361-.94,4.5,4.5,0,0,1,3.394-.077,4.457,4.457,0,0,1,1.4.878,4.206,4.206,0,0,1,.958,1.327,4.115,4.115,0,0,1,.369,1.636,4.2,4.2,0,0,1-.294,1.688,3.976,3.976,0,0,1-.9,1.349,4.6,4.6,0,0,1-1.361.924A4.318,4.318,0,0,1,222.277,193.625Z" transform="translate(-15.571 -8.154)"/></g><path class="cls-3" d="M186.99,48.525a13.468,13.468,0,0,1-13.4-11.612h12.733c1.407,0,4.474.3,4.474.3V31.571s-3.008.223-4.691.223H173.585a13.531,13.531,0,0,1,13.4-11.274,27.185,27.185,0,0,1,7.83,1.607L194.9,16.2a24.3,24.3,0,0,0-7.911-1.167c-11.2,0-21,8.56-21,19.463,0,11.8,9.8,19.76,21,19.76a22.333,22.333,0,0,0,8.409-1.407l-.151-6.136a21.928,21.928,0,0,1-8.257,1.815" transform="translate(-15.571 -8.154)"/><path class="cls-3" d="M148.873,54.1a42.462,42.462,0,0,0,.426-5.338V21.7h-1.832c-2.494,0-6.35,0-9.2.278l-.246-6.285h29.721l-.142,6.285c-2.94-.278-6.728-.278-9.3-.278h-2.256V48.765a36.492,36.492,0,0,0,.5,5.338Z" transform="translate(-15.571 -8.154)"/><path class="cls-3" d="M194.958,12.554a29.8,29.8,0,0,0-7.45-1.032,24.39,24.39,0,0,0-16.84,6.151l.072-4.616a29.083,29.083,0,0,1,16.769-4.9,28.759,28.759,0,0,1,7.52,1.017Z" transform="translate(-15.571 -8.154)"/><path class="cls-3" d="M120.393,34.341h-5.544V20.373s2.7-.074,5.91-.074c.481,0,.947.038,1.368.059,5.156.425,7.286,3.232,7.286,6.614,0,3.788-3,6.654-7.286,7.267a13.3,13.3,0,0,1-1.734.1m15.17,14.5-10.326-9.95c6.355-.613,11.7-5.285,11.7-11.347,0-6.45-3.721-12.16-14.81-12.62-.46-.025-.939-.038-1.439-.038-7.671,0-12.938.367-12.938.367s.349,3.789.349,5.692v27.9a33.508,33.508,0,0,1-.5,5.262h7.745a35.7,35.7,0,0,1-.5-5.767V36.988l7.278,7.617,3.682,3.808a72.647,72.647,0,0,0,6.229,5.69h10.237a75.545,75.545,0,0,1-6.713-5.262" transform="translate(-15.571 -8.154)"/></svg>