<svg id="Layer_1" data-name="Layer 1" xmlns="http://www.w3.org/2000/svg" viewBox="0 0 242 48"><defs><style>.cls-1{fill:#fff;}.cls-2{fill:#1b75bc;}.cls-3{fill:#ed1c24;}</style></defs><title>RIOArtboard 13</title><path d="M63.76,20.15l-5.7-9.26H58l.08,9.26H54.76V6h3.9l5.68,9.24h.06L64.32,6h3.32V20.15Z"/><path d="M70.56,20.15V6H74V20.15Z"/><path d="M85.56,20.15,80.3,13.63h0v6.52H76.92V6h3.34v5.76h.06L85.38,6h4.28l-6.1,6.52L90,20.15Z"/><path d="M91.14,20.15V6h3.44V20.15Z"/><path d="M103.56,8.91V20.15h-3.42V8.91h-4V6h11.42V8.91Z"/><path d="M109.12,20.15V6h3.44V20.15Z"/><path d="M124.48,20.15l-5.7-9.26h-.06l.08,9.26h-3.32V6h3.9l5.68,9.24h.06L125,6h3.32V20.15Z"/><path d="M151,20.15h-3.38l-2.8-9.58h-.06L142,20.15h-3.4L134.58,6h3.68l2.24,9.42h.06L143.08,6h3.56l2.54,9.42h.06L151.52,6h3.56Z"/><path d="M156.54,20.15V6H160V20.15Z"/><path d="M171.9,20.15l-5.7-9.26h-.06l.08,9.26H162.9V6h3.9l5.68,9.24h.06L172.46,6h3.32V20.15Z"/><path d="M186.18,9.67A3.1,3.1,0,0,0,185,8.78a3.25,3.25,0,0,0-1.37-.33,4.06,4.06,0,0,0-.69.06,1.78,1.78,0,0,0-.63.23,1.55,1.55,0,0,0-.47.44,1.17,1.17,0,0,0-.19.69,1.12,1.12,0,0,0,.15.6,1.34,1.34,0,0,0,.44.42,3.92,3.92,0,0,0,.69.33l.9.31,1.5.53a5.64,5.64,0,0,1,1.42.77A4,4,0,0,1,187.84,14a3.42,3.42,0,0,1,.42,1.77,4.63,4.63,0,0,1-.45,2.11,4.22,4.22,0,0,1-1.21,1.47,5.18,5.18,0,0,1-1.74.86,7.33,7.33,0,0,1-2,.28A8.34,8.34,0,0,1,179.9,20a6.23,6.23,0,0,1-2.36-1.51l2.24-2.28a4.14,4.14,0,0,0,1.37,1.07,3.72,3.72,0,0,0,1.69.43,3.38,3.38,0,0,0,.74-.08,1.83,1.83,0,0,0,.63-.26,1.31,1.31,0,0,0,.43-.48,1.51,1.51,0,0,0,.16-.72,1.14,1.14,0,0,0-.2-.68A2,2,0,0,0,184,15a4.69,4.69,0,0,0-.92-.42l-1.25-.41a12,12,0,0,1-1.33-.52,4.45,4.45,0,0,1-1.16-.77,3.57,3.57,0,0,1-.82-1.14,3.87,3.87,0,0,1-.31-1.63,4,4,0,0,1,.48-2A4.16,4.16,0,0,1,180,6.67a5.4,5.4,0,0,1,1.76-.79,8,8,0,0,1,2-.25,7.35,7.35,0,0,1,2.45.44,6.33,6.33,0,0,1,2.19,1.3Z"/><path d="M206.56,16a3.82,3.82,0,0,1-.46,2,3.65,3.65,0,0,1-1.22,1.27,5.31,5.31,0,0,1-1.73.69,9.4,9.4,0,0,1-2,.21h-5.64V6h5.64a8.66,8.66,0,0,1,1.68.17,5,5,0,0,1,1.56.58,3.31,3.31,0,0,1,1.14,1.11A3.29,3.29,0,0,1,206,9.63a2.94,2.94,0,0,1-.64,1.95,3.57,3.57,0,0,1-1.68,1.11v0a3.85,3.85,0,0,1,1.13.37,3.29,3.29,0,0,1,.92.69,3.24,3.24,0,0,1,.62,1A3.29,3.29,0,0,1,206.56,16Zm-3.88-5.94A1.14,1.14,0,0,0,202.13,9a3.23,3.23,0,0,0-1.63-.33h-1.68v2.92h1.84a2.48,2.48,0,0,0,1.49-.39A1.34,1.34,0,0,0,202.68,10.09Zm.46,5.62a1.25,1.25,0,0,0-.66-1.22,3.86,3.86,0,0,0-1.76-.34h-1.9v3.24h1.92a5.15,5.15,0,0,0,.83-.07,2.61,2.61,0,0,0,.78-.25,1.42,1.42,0,0,0,.79-1.36Z"/><path d="M215.7,14.15v6h-3.42v-6L207,6h4.14l3,5.24,3-5.24h4Z"/><path d="M17.86,40.14a5.06,5.06,0,0,1-1.23,1.8,5.68,5.68,0,0,1-1.93,1.17,7.15,7.15,0,0,1-2.51.42,7.13,7.13,0,0,1-2.52-.42,5.49,5.49,0,0,1-1.9-1.17,5.07,5.07,0,0,1-1.2-1.8,6.22,6.22,0,0,1-.42-2.33V29h3.4v8.54a3.93,3.93,0,0,0,.15,1.1,2.83,2.83,0,0,0,.46.93,2.15,2.15,0,0,0,.82.65,2.87,2.87,0,0,0,1.23.24,2.87,2.87,0,0,0,1.23-.24,2.22,2.22,0,0,0,.83-.65,2.59,2.59,0,0,0,.46-.93,4.24,4.24,0,0,0,.14-1.1V29h3.42v8.82A6.09,6.09,0,0,1,17.86,40.14Z"/><path d="M30.05,43.15l-5.7-9.26h-.06l.08,9.26H21.05V29h3.9l5.68,9.24h.06L30.61,29h3.32V43.15Z"/><path d="M46.45,43.15l-1.1-2.78H39.87l-1,2.78H35.11L41.05,29h3.32l5.88,14.16Zm-3.8-10.38-1.8,4.86h3.56Z"/><path d="M60.43,43.15l-5.7-9.26h-.06l.08,9.26H51.43V29h3.9L61,38.23h.06L61,29h3.32V43.15Z"/><path d="M67.23,43.15V29h3.44V43.15Z"/><path d="M86.43,43.15l.08-10h-.06l-3.68,10h-2.4l-3.58-10h-.06l.08,10H73.59V29h4.87l3.22,9.08h.08L84.84,29h4.95V43.15Z"/><path d="M107.45,36a7.89,7.89,0,0,1-.58,3.07,7,7,0,0,1-1.61,2.38A7.15,7.15,0,0,1,102.81,43a9,9,0,0,1-6.15,0,7.18,7.18,0,0,1-2.44-1.53,7,7,0,0,1-1.61-2.38A7.89,7.89,0,0,1,92,36a7.8,7.8,0,0,1,.58-3.07,6.72,6.72,0,0,1,1.61-2.33,7.18,7.18,0,0,1,2.44-1.48,9.34,9.34,0,0,1,6.15,0,7.15,7.15,0,0,1,2.45,1.48,6.72,6.72,0,0,1,1.61,2.33A7.8,7.8,0,0,1,107.45,36Zm-3.66,0a4.84,4.84,0,0,0-.3-1.72,4.11,4.11,0,0,0-.83-1.37,3.83,3.83,0,0,0-1.28-.9,4.06,4.06,0,0,0-1.65-.33,3.94,3.94,0,0,0-2.92,1.23A3.91,3.91,0,0,0,96,34.29,5,5,0,0,0,95.69,36a5.08,5.08,0,0,0,.3,1.77,4.2,4.2,0,0,0,.83,1.39,3.78,3.78,0,0,0,1.27.91,4.24,4.24,0,0,0,3.28,0,3.87,3.87,0,0,0,1.28-.91,4.08,4.08,0,0,0,.84-1.39A5,5,0,0,0,103.79,36Z"/><path d="M121.28,40.14a5.07,5.07,0,0,1-1.23,1.8,5.68,5.68,0,0,1-1.93,1.17,7.74,7.74,0,0,1-5,0,5.47,5.47,0,0,1-1.9-1.17,5.07,5.07,0,0,1-1.2-1.8,6.22,6.22,0,0,1-.42-2.33V29H113v8.54a4,4,0,0,0,.15,1.1,2.81,2.81,0,0,0,.46.93,2.14,2.14,0,0,0,.82.65,3.27,3.27,0,0,0,2.46,0,2.24,2.24,0,0,0,.83-.65,2.58,2.58,0,0,0,.46-.93,4.2,4.2,0,0,0,.14-1.1V29h3.42v8.82A6.1,6.1,0,0,1,121.28,40.14Z"/><path d="M131.95,32.67a3.1,3.1,0,0,0-1.15-.89,3.25,3.25,0,0,0-1.37-.33,4.06,4.06,0,0,0-.69.06,1.78,1.78,0,0,0-.63.23,1.55,1.55,0,0,0-.47.44,1.17,1.17,0,0,0-.19.69,1.12,1.12,0,0,0,.15.6,1.34,1.34,0,0,0,.44.42,3.92,3.92,0,0,0,.69.33l.9.31,1.5.53a5.64,5.64,0,0,1,1.42.77A4,4,0,0,1,133.61,37a3.42,3.42,0,0,1,.42,1.77,4.63,4.63,0,0,1-.45,2.11,4.22,4.22,0,0,1-1.21,1.47,5.18,5.18,0,0,1-1.74.86,7.33,7.33,0,0,1-2,.28,8.34,8.34,0,0,1-2.94-.53,6.23,6.23,0,0,1-2.36-1.51l2.24-2.28a4.14,4.14,0,0,0,1.37,1.07,3.72,3.72,0,0,0,1.69.43,3.38,3.38,0,0,0,.74-.08,1.83,1.83,0,0,0,.63-.26,1.31,1.31,0,0,0,.43-.48,1.51,1.51,0,0,0,.16-.72,1.14,1.14,0,0,0-.2-.68,2,2,0,0,0-.57-.51,4.69,4.69,0,0,0-.92-.42l-1.25-.41a12,12,0,0,1-1.33-.52,4.45,4.45,0,0,1-1.16-.77,3.57,3.57,0,0,1-.82-1.14,3.86,3.86,0,0,1-.31-1.63,4,4,0,0,1,.48-2,4.17,4.17,0,0,1,1.26-1.38,5.4,5.4,0,0,1,1.76-.79,8,8,0,0,1,2-.25,7.35,7.35,0,0,1,2.45.44,6.33,6.33,0,0,1,2.19,1.3Z"/><path d="M154.51,36a7,7,0,0,1-.69,3.21A6.46,6.46,0,0,1,152,41.46a7.59,7.59,0,0,1-2.55,1.28,10.33,10.33,0,0,1-2.88.41h-5.28V29h5.12a12.65,12.65,0,0,1,3,.35A7.43,7.43,0,0,1,152,30.5a6,6,0,0,1,1.84,2.17A7.3,7.3,0,0,1,154.51,36Zm-3.56,0a4.49,4.49,0,0,0-.39-2,3.37,3.37,0,0,0-1-1.26,4.17,4.17,0,0,0-1.48-.67,7.3,7.3,0,0,0-1.71-.2h-1.7v8.28h1.62A7.38,7.38,0,0,0,148,40a4.18,4.18,0,0,0,1.5-.69,3.43,3.43,0,0,0,1-1.28A4.5,4.5,0,0,0,150.95,36Z"/><path d="M156.77,43.15V29h9.52v2.88h-6.22v2.68h5.88v2.74h-5.88v2.94h6.58v2.92Z"/><path d="M179,42.9a7.58,7.58,0,0,1-3.18.63,8.29,8.29,0,0,1-3-.54,7,7,0,0,1-4-3.9,8.3,8.3,0,0,1,0-6.12,6.86,6.86,0,0,1,1.63-2.35,7.22,7.22,0,0,1,2.44-1.49,8.74,8.74,0,0,1,6,0,5.66,5.66,0,0,1,2.35,1.55L178.91,33a2.88,2.88,0,0,0-1.26-1,4.19,4.19,0,0,0-1.6-.32,4.06,4.06,0,0,0-1.65.33,3.87,3.87,0,0,0-1.29.91,4.13,4.13,0,0,0-.84,1.37A4.84,4.84,0,0,0,172,36a5,5,0,0,0,.3,1.76,4.08,4.08,0,0,0,.83,1.37,3.72,3.72,0,0,0,1.27.89,4,4,0,0,0,1.62.32,3.77,3.77,0,0,0,1.78-.4,3.46,3.46,0,0,0,1.22-1l2.38,2.24A6.75,6.75,0,0,1,179,42.9Z"/><path d="M182.83,43.15V29h3.44V43.15Z"/><path d="M196.67,32.67a3.1,3.1,0,0,0-1.15-.89,3.25,3.25,0,0,0-1.37-.33,4.06,4.06,0,0,0-.69.06,1.78,1.78,0,0,0-.63.23,1.55,1.55,0,0,0-.47.44,1.17,1.17,0,0,0-.19.69,1.12,1.12,0,0,0,.15.6,1.34,1.34,0,0,0,.44.42,3.92,3.92,0,0,0,.69.33l.9.31,1.5.53a5.64,5.64,0,0,1,1.42.77A4,4,0,0,1,198.33,37a3.42,3.42,0,0,1,.42,1.77,4.63,4.63,0,0,1-.45,2.11,4.22,4.22,0,0,1-1.21,1.47,5.18,5.18,0,0,1-1.74.86,7.33,7.33,0,0,1-2,.28,8.34,8.34,0,0,1-2.94-.53A6.23,6.23,0,0,1,188,41.47l2.24-2.28a4.14,4.14,0,0,0,1.37,1.07,3.72,3.72,0,0,0,1.69.43,3.38,3.38,0,0,0,.74-.08,1.83,1.83,0,0,0,.63-.26,1.31,1.31,0,0,0,.43-.48,1.51,1.51,0,0,0,.16-.72,1.14,1.14,0,0,0-.2-.68,2,2,0,0,0-.57-.51,4.69,4.69,0,0,0-.92-.42l-1.25-.41a12,12,0,0,1-1.33-.52,4.45,4.45,0,0,1-1.16-.77A3.57,3.57,0,0,1,189,34.7a3.87,3.87,0,0,1-.31-1.63,4,4,0,0,1,.48-2,4.16,4.16,0,0,1,1.26-1.38,5.4,5.4,0,0,1,1.76-.79,8,8,0,0,1,2-.25,7.35,7.35,0,0,1,2.45.44,6.33,6.33,0,0,1,2.19,1.3Z"/><path d="M201,43.15V29h3.44V43.15Z"/><path d="M222.13,36a7.89,7.89,0,0,1-.58,3.07,7,7,0,0,1-1.61,2.38A7.16,7.16,0,0,1,217.49,43a9,9,0,0,1-6.15,0,7.17,7.17,0,0,1-2.44-1.53,7,7,0,0,1-1.61-2.38,7.89,7.89,0,0,1-.58-3.07,7.8,7.8,0,0,1,.58-3.07,6.71,6.71,0,0,1,1.61-2.33,7.18,7.18,0,0,1,2.44-1.48,9.34,9.34,0,0,1,6.15,0,7.17,7.17,0,0,1,2.45,1.48,6.72,6.72,0,0,1,1.61,2.33A7.8,7.8,0,0,1,222.13,36Zm-3.66,0a4.86,4.86,0,0,0-.3-1.72,4.11,4.11,0,0,0-.83-1.37,3.83,3.83,0,0,0-1.28-.9,4.06,4.06,0,0,0-1.65-.33,3.94,3.94,0,0,0-2.92,1.23,3.9,3.9,0,0,0-.83,1.37,5.31,5.31,0,0,0,0,3.49,4.18,4.18,0,0,0,.83,1.39,3.77,3.77,0,0,0,1.27.91,4.24,4.24,0,0,0,3.28,0,3.89,3.89,0,0,0,1.28-.91,4.09,4.09,0,0,0,.84-1.39A5.05,5.05,0,0,0,218.47,36Z"/><path d="M233.39,43.15l-5.7-9.26h-.06l.08,9.26h-3.32V29h3.9L234,38.23H234L233.95,29h3.32V43.15Z"/><rect class="cls-1" x="18.11" y="5.15" width="28.84" height="5.49"/><rect class="cls-2" x="18.11" y="10.64" width="28.84" height="5.49"/><rect class="cls-3" x="18.11" y="16.12" width="28.84" height="5.49"/></svg>