<svg id="Layer_1" data-name="Layer 1" xmlns="http://www.w3.org/2000/svg" viewBox="0 0 163.34 104"><defs><style>.cls-1{fill:#fff;}</style></defs><title>rte-logo</title><path class="cls-1" d="M124.5,72.9a16.25,16.25,0,0,1-16.18-14h15.37c1.7,0,5.4.36,5.4.36V52.44s-3.63.27-5.66.27h-15.1a16.33,16.33,0,0,1,16.18-13.6A32.8,32.8,0,0,1,133.94,41l.1-7.16a29.32,29.32,0,0,0-9.55-1.41C111,32.48,99.15,42.81,99.15,56c0,14.23,11.82,23.84,25.34,23.84a27,27,0,0,0,10.15-1.7l-.18-7.4a26.46,26.46,0,0,1-10,2.19"/><path class="cls-1" d="M78.5,79.63A51.24,51.24,0,0,0,79,73.19V40.54H76.8c-3,0-7.66,0-11.1.34l-.3-7.58h35.87l-.17,7.58c-3.55-.34-8.12-.34-11.22-.34H87.16V73.19a44,44,0,0,0,.6,6.44Z"/><path class="cls-1" d="M134.11,29.5a36,36,0,0,0-9-1.25,29.43,29.43,0,0,0-20.32,7.42l.09-5.57a35.1,35.1,0,0,1,20.24-5.92,34.7,34.7,0,0,1,9.07,1.23Z"/><path class="cls-1" d="M44.13,55.79H37.44V38.93s3.25-.09,7.13-.09c.58,0,1.14,0,1.65.07,6.22.51,8.79,3.9,8.79,8,0,4.57-3.61,8-8.79,8.77a16.05,16.05,0,0,1-2.09.12m18.31,17.5L50,61.28c7.67-.74,14.12-6.38,14.12-13.69,0-7.78-4.49-14.67-17.87-15.23-.56,0-1.13,0-1.74,0-9.26,0-15.61.44-15.61.44s.42,4.57.42,6.87V73.28a40.43,40.43,0,0,1-.6,6.35H38a43.08,43.08,0,0,1-.6-7V59l8.78,9.19,4.44,4.6a87.66,87.66,0,0,0,7.52,6.87H70.54a91.16,91.16,0,0,1-8.1-6.35"/></svg>