<?xml version="1.0" encoding="utf-8"?>
<!-- Generator: Adobe Illustrator 20.1.0, SVG Export Plug-In . SVG Version: 6.00 Build 0)  -->
<svg version="1.1" id="Layer_1" xmlns="http://www.w3.org/2000/svg" xmlns:xlink="http://www.w3.org/1999/xlink" x="0px" y="0px"
	 viewBox="0 0 111.5 100" style="enable-background:new 0 0 111.5 100;" xml:space="preserve">
<style type="text/css">
	.st0{fill:#2B50B0;}
	.st1{fill:#FFFFFF;}
</style>
<title>RIOArtboard 11</title>
<rect x="2.7" y="3.7" class="st0" width="106.8" height="93.7"/>
<g>
	<g>
		<path class="st1" d="M38.1,47.7c0.6-0.4,1-0.9,1.4-1.4c0.4-0.5,0.5-1.1,0.5-1.6c0-0.7-0.2-1.2-0.6-1.8c-0.4-0.5-1.1-0.8-2-0.8
			c-1,0-1.8,0.4-2.4,1.1c-0.6,0.8-1,1.8-1,3.1l-11.4-1.3c0.2-2.3,0.8-4.3,1.8-5.9c1-1.7,2.2-3.1,3.6-4.2c1.5-1.1,3.1-1.9,4.9-2.4
			c1.8-0.5,3.6-0.8,5.5-0.8c1.7,0,3.5,0.2,5.2,0.6c1.7,0.4,3.2,1.1,4.6,2c1.3,0.9,2.4,2.1,3.2,3.6c0.8,1.5,1.2,3.2,1.2,5.3
			c0,1.5-0.2,2.8-0.6,3.9c-0.4,1.1-0.9,2.1-1.6,3c-0.6,0.9-1.4,1.6-2.2,2.3c-0.8,0.7-1.7,1.4-2.6,2l-5.2,3.7h12.2v10H24.1v-9.2
			L38.1,47.7z"/>
		<path class="st1" d="M69.9,57.1c-1.5,0-3-0.3-4.5-0.8C64,55.8,62.7,55,61.6,54c-1.1-1-2-2.2-2.7-3.7c-0.7-1.5-1-3.1-1-5
			c0-2.2,0.4-4.2,1.2-5.9c0.8-1.7,2-3.1,3.4-4.2c1.4-1.1,3.1-2,5-2.5c1.9-0.6,3.8-0.9,5.9-0.9c2.1,0,4,0.3,5.9,0.8
			c1.9,0.6,3.5,1.4,5,2.5c1.4,1.1,2.6,2.5,3.4,4.2c0.8,1.7,1.2,3.7,1.2,5.9c0,2.2-0.4,4.3-1.3,6.3c-0.9,2-1.9,3.7-3.1,5.4l-8.1,11.4
			H61.9l8.4-10.8l0.2-0.3H69.9z M73.3,48.7c1.1,0,1.9-0.3,2.6-1c0.7-0.7,1-1.5,1-2.5c0-1-0.3-1.9-1-2.6c-0.7-0.7-1.6-1-2.6-1
			c-1.1,0-2,0.3-2.7,1c-0.7,0.7-1,1.6-1,2.6c0,1,0.3,1.8,1,2.5C71.3,48.4,72.2,48.7,73.3,48.7z"/>
	</g>
</g>
</svg>
