<?xml version="1.0" encoding="utf-8"?>
<!-- Generator: Adobe Illustrator 20.1.0, SVG Export Plug-In . SVG Version: 6.00 Build 0)  -->
<svg version="1.1" id="Layer_1" xmlns="http://www.w3.org/2000/svg" xmlns:xlink="http://www.w3.org/1999/xlink" x="0px" y="0px"
	 viewBox="0 0 111.5 100" style="enable-background:new 0 0 111.5 100;" xml:space="preserve">
<style type="text/css">
	.st0{fill:#E82429;}
	.st1{fill:#FFFFFF;}
</style>
<title>RIOArtboard 10</title>
<rect x="2" y="3.7" class="st0" width="106.8" height="93.7"/>
<g>
	<g>
		<path class="st1" d="M38.5,47.2c0.6-0.4,1-0.9,1.4-1.4c0.4-0.5,0.5-1.1,0.5-1.6c0-0.7-0.2-1.2-0.6-1.8c-0.4-0.5-1.1-0.8-2-0.8
			c-1,0-1.8,0.4-2.4,1.1c-0.6,0.8-1,1.8-1,3.1l-11.4-1.3c0.2-2.3,0.8-4.3,1.8-5.9c1-1.7,2.2-3.1,3.6-4.2c1.5-1.1,3.1-1.9,4.9-2.4
			c1.8-0.5,3.6-0.8,5.5-0.8c1.7,0,3.5,0.2,5.2,0.6c1.7,0.4,3.2,1.1,4.6,2c1.3,0.9,2.4,2.1,3.2,3.6c0.8,1.5,1.2,3.2,1.2,5.3
			c0,1.5-0.2,2.8-0.6,3.9c-0.4,1.1-0.9,2.1-1.6,3c-0.6,0.9-1.4,1.6-2.2,2.3c-0.8,0.7-1.7,1.4-2.6,2L41,57.7h12.2v10H24.5v-9.2
			L38.5,47.2z"/>
		<path class="st1" d="M82.5,49.3c1.7,0.6,3.1,1.7,4.2,3.1c1.1,1.4,1.7,3.1,1.7,5.1s-0.4,3.7-1.3,5.1c-0.8,1.4-2,2.6-3.3,3.5
			c-1.4,0.9-3,1.6-4.7,2c-1.8,0.4-3.5,0.6-5.4,0.6s-3.6-0.2-5.4-0.6c-1.8-0.4-3.3-1-4.7-1.9c-1.4-0.9-2.5-2.1-3.3-3.5
			c-0.8-1.4-1.3-3.1-1.3-5.1c0-1.9,0.5-3.6,1.6-5c1.1-1.4,2.5-2.5,4.3-3.2v-0.1c-1.5-0.6-2.7-1.5-3.8-2.8c-1-1.3-1.6-2.8-1.6-4.7
			c0-1.8,0.4-3.4,1.2-4.8c0.8-1.3,1.9-2.4,3.2-3.2c1.3-0.8,2.8-1.4,4.5-1.8c1.7-0.4,3.4-0.6,5.2-0.6c1.7,0,3.5,0.2,5.2,0.6
			c1.7,0.4,3.2,1,4.5,1.8c1.3,0.8,2.4,1.9,3.2,3.2c0.8,1.3,1.2,2.9,1.2,4.8c0,1.8-0.5,3.4-1.5,4.7c-1,1.3-2.2,2.2-3.9,2.7V49.3z
			 M73.7,53.8c-1,0-1.8,0.3-2.3,0.9c-0.5,0.6-0.8,1.3-0.8,2c0,0.8,0.3,1.4,0.8,2c0.5,0.6,1.3,0.9,2.3,0.9c1,0,1.8-0.3,2.3-0.9
			c0.5-0.6,0.8-1.3,0.8-2c0-0.8-0.3-1.5-0.8-2C75.5,54.2,74.7,53.8,73.7,53.8z M73.7,40.2c-0.9,0-1.6,0.3-2.1,0.8
			c-0.5,0.6-0.8,1.1-0.8,1.8c0,0.7,0.3,1.3,0.8,1.9c0.5,0.6,1.2,0.9,2.1,0.9c0.9,0,1.6-0.3,2.1-0.9c0.5-0.6,0.8-1.2,0.8-1.9
			c0-0.6-0.3-1.2-0.8-1.8C75.3,40.4,74.6,40.2,73.7,40.2z"/>
	</g>
</g>
</svg>
