<svg id="Layer_1" data-name="Layer 1" xmlns="http://www.w3.org/2000/svg" viewBox="0 0 75.3 45.22"><title>RIOArtboard 12</title><path d="M4.85,11.91l14.36-1.59,6,15.46.22,0L27.67,9.38,41.53,7.85,33.41,38.61,19.33,40.17Z"/><path d="M70.4,25a9.32,9.32,0,0,1-.7,5.13,10,10,0,0,1-2.82,3.58,13.86,13.86,0,0,1-4,2.21,19.39,19.39,0,0,1-4.3,1,26.24,26.24,0,0,1-7.61-.26,20.15,20.15,0,0,1-6.71-2.41l5.52-8a10.76,10.76,0,0,0,3.39,1.64,9.15,9.15,0,0,0,3.59.37A3.19,3.19,0,0,0,58,27.86a.93.93,0,0,0,.49-1c-.05-.49-.44-.83-1.17-1a29.47,29.47,0,0,0-3.73-.64,16.78,16.78,0,0,1-3-.67,10.3,10.3,0,0,1-2.85-1.41,8.77,8.77,0,0,1-2.28-2.39,8,8,0,0,1-1.19-3.59,9.07,9.07,0,0,1,.72-5,10.58,10.58,0,0,1,2.83-3.64,14.24,14.24,0,0,1,4-2.32A17.22,17.22,0,0,1,56,5.1a23.6,23.6,0,0,1,6.9.26,22.66,22.66,0,0,1,6.37,2.13L64.05,15.4a13.61,13.61,0,0,0-3-1.08,8.78,8.78,0,0,0-2.92-.19,4.2,4.2,0,0,0-1.54.43,1,1,0,0,0-.51,1q.06.56.79.79a20,20,0,0,0,3.3.46,17,17,0,0,1,3.49.66A12,12,0,0,1,66.82,19a7.94,7.94,0,0,1,3.58,6Z"/></svg>