<svg id="Layer_1" data-name="Layer 1" xmlns="http://www.w3.org/2000/svg" viewBox="0 0 236.83 123.33"><defs><style>.cls-1{fill:#fff;}</style></defs><title>RIOArtboard 6</title><path class="cls-1" d="M41.1,60.12,26.5,61.74,24.53,44,5.33,20.15,22.92,18.2l8.28,12,5.15-13.48,17.17-1.9L39.13,42.35Z"/><path class="cls-1" d="M54.3,36.44a23.35,23.35,0,0,1,.8-9.61,21,21,0,0,1,4.27-7.7,22.63,22.63,0,0,1,7.13-5.38,29.67,29.67,0,0,1,19.13-2.12,23,23,0,0,1,8.17,3.69,20.83,20.83,0,0,1,5.88,6.58,23.35,23.35,0,0,1,2.88,9.21,24,24,0,0,1-.79,9.71,21.56,21.56,0,0,1-4.28,7.89,23,23,0,0,1-7.14,5.54,28.63,28.63,0,0,1-19.13,2.12,22.63,22.63,0,0,1-8.15-3.84,21.78,21.78,0,0,1-5.87-6.77A24,24,0,0,1,54.3,36.44Zm15.51-1.72a11.52,11.52,0,0,0,1.08,3.85A9.48,9.48,0,0,0,73,41.45,7.81,7.81,0,0,0,76,43.14a8.44,8.44,0,0,0,3.51.32,8.15,8.15,0,0,0,5.83-3.38,9.21,9.21,0,0,0,1.47-3.27,11.48,11.48,0,0,0,.21-4,11.05,11.05,0,0,0-1.07-3.76,8.3,8.3,0,0,0-2.13-2.74,8.48,8.48,0,0,0-6.41-1.86A8.76,8.76,0,0,0,74,25.51a8,8,0,0,0-2.52,2.17A8.48,8.48,0,0,0,70,30.82,11.09,11.09,0,0,0,69.81,34.73Z"/><path class="cls-1" d="M130.74,51.43a25.43,25.43,0,0,1-9-.43A17.88,17.88,0,0,1,115,47.84a15.49,15.49,0,0,1-4.38-5.38,20.87,20.87,0,0,1-2-7.07L105.68,9l14.59-1.62L123,32.18a7.29,7.29,0,0,0,2,4.71,6.11,6.11,0,0,0,8.52-.94,7.29,7.29,0,0,0,1-5L131.8,6.14l14.53-1.61,2.92,26.36a19.6,19.6,0,0,1-.52,7.35,16.11,16.11,0,0,1-3.25,6.22,18.42,18.42,0,0,1-6,4.57A26,26,0,0,1,130.74,51.43Z"/><path class="cls-1" d="M52.07,66.42,66.86,67,65.72,98l14.49.53-.46,12.64-29.28-1.08Z"/><path class="cls-1" d="M81.3,89.09a23.38,23.38,0,0,1,2.2-9.39,21,21,0,0,1,5.35-7,22.64,22.64,0,0,1,7.84-4.28,29.67,29.67,0,0,1,19.23.71A23,23,0,0,1,123.45,74a20.84,20.84,0,0,1,4.85,7.37,23.35,23.35,0,0,1,1.5,9.53,24,24,0,0,1-2.2,9.49,21.58,21.58,0,0,1-5.39,7.18,23,23,0,0,1-7.88,4.43,28.63,28.63,0,0,1-19.23-.71,22.65,22.65,0,0,1-7.5-5,21.79,21.79,0,0,1-4.81-7.55A24,24,0,0,1,81.3,89.09Zm15.59.57a11.52,11.52,0,0,0,.5,4,9.46,9.46,0,0,0,1.67,3.15,7.81,7.81,0,0,0,2.67,2.1,8.44,8.44,0,0,0,3.43.84,8.15,8.15,0,0,0,6.26-2.49,9.24,9.24,0,0,0,1.93-3,11.53,11.53,0,0,0,.79-3.92,11.09,11.09,0,0,0-.5-3.88,8.3,8.3,0,0,0-1.71-3,8.47,8.47,0,0,0-6.07-2.78,8.77,8.77,0,0,0-3.48.55,8,8,0,0,0-2.81,1.78,8.48,8.48,0,0,0-1.9,2.89A11.09,11.09,0,0,0,96.89,89.67Z"/><path class="cls-1" d="M149.41,114.93a29.47,29.47,0,0,1-5.19-.65,28.35,28.35,0,0,1-4.88-1.53,30.82,30.82,0,0,1-4.39-2.25,22.43,22.43,0,0,1-3.66-2.81l9.29-9.38a14.32,14.32,0,0,0,4,3.11,11.55,11.55,0,0,0,5.22,1.49,5.67,5.67,0,0,0,2.27-.35,1.59,1.59,0,0,0,1.08-1.57,1.65,1.65,0,0,0-.3-1.06,3.84,3.84,0,0,0-1.17-.94,19.5,19.5,0,0,0-2.33-1.11q-1.49-.61-3.74-1.44a32.24,32.24,0,0,1-4.19-1.92,15,15,0,0,1-3.51-2.63,11,11,0,0,1-2.37-3.64,12.14,12.14,0,0,1-.74-5,13.48,13.48,0,0,1,1.92-6.85,14.57,14.57,0,0,1,4.46-4.5,17.54,17.54,0,0,1,6-2.41,27,27,0,0,1,6.5-.57,25.07,25.07,0,0,1,8.72,2A23.5,23.5,0,0,1,170,76l-9.46,9A9.55,9.55,0,0,0,157,82a9.76,9.76,0,0,0-3.85-1.1,6.14,6.14,0,0,0-2.61.37,1.56,1.56,0,0,0-1,1.47,1.58,1.58,0,0,0,1,1.52,28.29,28.29,0,0,0,3.25,1.35q2.31.83,4.87,1.91a21,21,0,0,1,4.68,2.73,13.48,13.48,0,0,1,3.46,4A10.58,10.58,0,0,1,168,100a14.33,14.33,0,0,1-1.82,6.82,14.85,14.85,0,0,1-4.31,4.72,17.9,17.9,0,0,1-5.87,2.69A22.79,22.79,0,0,1,149.41,114.93Z"/><path class="cls-1" d="M174.79,70.93l30,1.1-.45,12.2-16.21-.6L188,87.4l15.23.56-.42,11.4L187.6,98.8l-.15,4.07,17.26.63-.45,12.21-31.07-1.14Z"/><path class="cls-1" d="M220.06,117.28a7.63,7.63,0,0,1-3-.7,8.12,8.12,0,0,1-2.38-1.66,7,7,0,0,1-1.55-2.4,7.38,7.38,0,0,1-.48-3,7.24,7.24,0,0,1,.69-2.88,7.32,7.32,0,0,1,1.72-2.31,7.85,7.85,0,0,1,2.49-1.51,7.93,7.93,0,0,1,6,.22,7.87,7.87,0,0,1,2.38,1.69,7.35,7.35,0,0,1,1.55,2.43,7.24,7.24,0,0,1,.48,2.92,7.39,7.39,0,0,1-.69,2.94,7,7,0,0,1-1.72,2.28,8.16,8.16,0,0,1-2.49,1.48A7.63,7.63,0,0,1,220.06,117.28Zm-5.76-44.9,14.79.54-1,27.61L213.29,100Z"/></svg>